<svg xmlns="http://www.w3.org/2000/svg" width="37" height="34" viewBox="0 0 37 34" fill="none">
    <path d="M22.5599 10.5526L30.659 18.2092C31.189 18.7103 31.4602 19.3851 31.4706 20.0638C31.869 19.4139 32.3709 18.8351 32.8707 18.2594C36.7333 13.8106 36.1624 6.83723 31.4014 3.13615C27.2993 -0.0528102 21.557 0.394735 17.9765 4.03737C17.7489 4.26901 17.5299 4.51357 17.3207 4.77094L12.0407 11.266C11.5054 11.9245 11.5761 12.8952 12.201 13.4662L14.014 15.1227C15.2746 16.2745 17.2071 16.1978 18.3757 14.9497L22.5599 10.5526Z" fill="#D6897D"/>
    <path d="M23.8569 18.7666L27.1737 21.978C28.1638 22.9367 29.7218 22.9279 30.7014 21.9581C31.7439 20.926 31.7245 19.2165 30.659 18.2092L22.5599 10.5526L18.3757 14.9497C17.2071 16.1978 15.2746 16.2745 14.014 15.1227L12.201 13.4662C11.5761 12.8952 11.5054 11.9245 12.0407 11.266L17.3207 4.77094C20.82 0.466363 27.0384 -0.255602 31.4014 3.13615C36.1624 6.83723 36.7333 13.8106 32.8707 18.2594C32.3709 18.8351 31.869 19.4139 31.4706 20.0638V20.0638M26.9891 21.8034C27.9516 22.6736 28.0117 24.1826 27.1216 25.1291L27.0526 25.2025C26.2044 26.1044 24.8001 26.1426 23.9058 25.2881M17.3964 25.5369L20.4952 28.5934C21.4495 29.5346 22.9811 29.4829 23.8719 28.4793C24.732 27.5102 24.6674 26.018 23.7268 25.1296L20.6266 22.2015M18.1227 4.19715C13.8726 -0.552593 6.29918 0.170031 2.88695 5.57393C-0.173323 10.4204 0.541953 16.8573 4.64617 20.826L16.4537 32.2438C17.5398 33.2941 19.2589 33.2441 20.2844 32.1325C21.3094 31.0213 21.2359 29.261 20.1371 28.2251" stroke="#262626" stroke-width="2"/>
</svg>