<svg xmlns="http://www.w3.org/2000/svg" width="39" height="35" viewBox="0 0 39 35" fill="none">
    <rect x="0.527023" y="0.920485" width="30.4284" height="18.5426" transform="matrix(0.96498 0.262322 -0.262284 0.964991 6.45813 6.9306)" fill="#B8EDBA" stroke="#262626" stroke-width="1.5"/>
    <path d="M15.8626 18.424C15.3326 20.402 13.324 21.567 11.3892 21.0486C9.45443 20.5302 8.29744 18.517 8.82745 16.5389C9.35746 14.5609 11.3661 13.3959 13.3009 13.9143C15.2357 14.4328 16.3927 16.446 15.8626 18.424Z" fill="#FFBD66" stroke="#262626" stroke-width="1.5"/>
    <path d="M15.8626 18.424C15.3326 20.402 13.324 21.567 11.3892 21.0486C9.45443 20.5302 8.29744 18.517 8.82745 16.5389C9.35746 14.5609 11.3661 13.3959 13.3009 13.9143C15.2357 14.4328 16.3927 16.446 15.8626 18.424Z" fill="#FFBD66" stroke="#262626" stroke-width="1.5"/>
    <path d="M31.098 13.262C30.2867 16.2897 27.209 18.0803 24.2367 17.2838C21.2643 16.4874 19.4942 13.3979 20.3055 10.3702C21.1168 7.34248 24.1945 5.55193 27.1668 6.34837C30.1392 7.14481 31.9093 10.2343 31.098 13.262Z" fill="#FFBD66" stroke="#262626" stroke-width="1.5"/>
</svg>