<svg xmlns="http://www.w3.org/2000/svg" width="72" height="72" viewBox="0 0 72 72">
    <g fill="none" fill-rule="evenodd">
        <circle cx="36" cy="36" r="36" fill="#99BDCD"/>
        <path fill="#3E3832" d="M43.71 17.538c5.94 0 10.77 4.487 10.772 9.999 0 4.014-2.55 7.603-6.505 9.186-.617.583-2.47 2.414-5.26 5.205l-1.314 1.314v-1.857c0-.634 0-2.827.003-4.076-.63-.127-1.248-.309-1.844-.54-.01-.003-.637-.212-1.504-.694a11.1 11.1 0 0 0-.164-1.881c-.432-2.47-1.692-4.594-3.434-5.985a8.118 8.118 0 0 0-1.53-.972c.025-.445.078-.903.165-1.385.877-4.817 5.342-8.314 10.616-8.314zm-2.947 11.539V27.41h-1.668v1.666h1.668zm4.166 0V27.41h-1.666v1.666h1.666zm2.5-1.666v1.666h1.666V27.41H47.43zm-17.504 5.363c-.527 1.01-2.382 1.93-3.891 1.93-.579 0-2.056-.373-2.962-.692.779-3.443 3.44-5.989 6.606-5.989 3.314 0 6.084 2.79 6.708 6.48-.437.062-1.212.18-1.39.214-1.7.33-2.713-.206-3.72-1.97l-.7-1.222-.651 1.249zm9.304 14.472c1.739.622 2.906 2.29 2.906 4.157v3.059H17.52v-3.059a4.412 4.412 0 0 1 2.91-4.157l5.553-1.988V42.853c-1.89-1.433-3.146-3.928-3.146-6.77 0-.174.012-.345.021-.517 1.064.348 2.471.68 3.176.68 1.638 0 3.43-.75 4.517-1.798.975 1.29 2.123 1.903 3.567 1.903.37 0 .759-.04 1.17-.12.129-.025.804-.126 1.23-.188 0 .012.004.025.004.039 0 2.684-1.127 5.06-2.847 6.526v2.649l5.554 1.99z"/>
    </g>
</svg>
