<svg xmlns="http://www.w3.org/2000/svg" xmlns:xlink="http://www.w3.org/1999/xlink" width="16" height="16" viewBox="0 0 16 16">
    <defs>
        <path id="a" d="M8.585 8l6.587-6.862a.686.686 0 0 0 0-.943.621.621 0 0 0-.904 0L7.68 7.057 1.092.195a.621.621 0 0 0-.904 0 .686.686 0 0 0 0 .943L6.775 8 .188 14.862a.686.686 0 0 0 0 .943.625.625 0 0 0 .904 0L7.68 8.943l6.588 6.862a.625.625 0 0 0 .904 0 .686.686 0 0 0 0-.943L8.585 8z"/>
    </defs>
    <g fill="none" fill-rule="evenodd">
        <mask id="b" fill="#fff">
            <use xlink:href="#a"/>
        </mask>
        <use fill="#3E3832" fill-rule="nonzero" xlink:href="#a"/>
        <g fill="#3E3832" mask="url(#b)">
            <path d="M0 0h15.36v16H0z"/>
        </g>
    </g>
</svg>
