<svg width="40" height="40" viewBox="0 0 40 40" fill="none" xmlns="http://www.w3.org/2000/svg">
    <g clip-path="url(#clip0_0_3)">
        <path d="M20 38.75C30.3553 38.75 38.75 30.3553 38.75 20C38.75 9.64466 30.3553 1.25 20 1.25C9.64466 1.25 1.25 9.64466 1.25 20C1.25 30.3553 9.64466 38.75 20 38.75Z" stroke="#262626" stroke-width="2"/>
        <path d="M20 15C22.0711 15 23.75 13.3211 23.75 11.25C23.75 9.17894 22.0711 7.5 20 7.5C17.9289 7.5 16.25 9.17894 16.25 11.25C16.25 13.3211 17.9289 15 20 15ZM20 17.5C23.4517 17.5 26.25 14.7017 26.25 11.25C26.25 7.79822 23.4517 5 20 5C16.5483 5 13.75 7.79822 13.75 11.25C13.75 14.7017 16.5483 17.5 20 17.5ZM22.6036 31.2536L31.6161 22.2411L33.3839 24.0089L22.3964 34.9964L19.0239 30.7809L20.9761 29.2191L22.6036 31.2536ZM20 21.25C16.5483 21.25 13.75 24.0483 13.75 27.5H11.25C11.25 22.6675 15.1675 18.75 20 18.75C23.1543 18.75 25.9187 20.4191 27.4584 22.9222L25.6195 24.7611C24.6044 22.6821 22.4694 21.25 20 21.25Z" fill="#262626"/>
        <path d="M20 15C22.0711 15 23.75 13.3211 23.75 11.25C23.75 9.17893 22.0711 7.5 20 7.5C17.9289 7.5 16.25 9.17893 16.25 11.25C16.25 13.3211 17.9289 15 20 15Z" fill="white"/>
    </g>
    <defs>
        <clipPath id="clip0_0_3">
            <rect width="40" height="40" fill="white"/>
        </clipPath>
    </defs>
</svg>
