<svg xmlns="http://www.w3.org/2000/svg" width="38" height="21" viewBox="0 0 38 21">
    <g fill="none" fill-rule="evenodd">
        <path fill="#654A28" fill-rule="nonzero" d="M14.746 14.138L27.749 8.075 30.649 14.294 17.646 20.358z"/>
        <path fill="#D8A25C" fill-rule="nonzero" d="M19.47 18.353l-1.13-.976.073-.108 3.435 2.346c.626.376 1.443.164 1.825-.472.365-.608.203-1.383-.357-1.78l-2.594-1.704.134-.226 4.632 2.812c.626.375 1.444.164 1.826-.472.383-.637.186-1.46-.44-1.834l-4.632-2.812.136-.225 6.666 3.919c.625.375 1.443.164 1.826-.472.382-.638.185-1.46-.44-1.834L19.647 7.99l-.558-.35c-.06-.21.082-.241.676-.267.406-.018 1.689.14 2.475.245l.635.087S25.92 8 26.12 6.7c.16-1.036-.988-1.537-1.453-1.696l-.242-.075c-.388-.133-2.831-.96-4.069-1.335-1.703-.519-3.729-.558-5.269-.51-1.538.053-3.978.446-4.265.924L8.77 2.925 4.221 10.5l1.406.846c.288.172.31.706.303.964-.112.514.062 1.03.479 1.281l11.677 7.07c.545.327 1.298.077 1.68-.56.382-.636.25-1.419-.294-1.746h-.001z"/>
        <path fill="#005B82" d="M3.055 0.9H7.055V10.9H3.055z" transform="rotate(32 5.055 5.9)"/>
        <path fill="#654A28" fill-rule="nonzero" d="M6.852 13.442c.487-.463 1.253-.458 1.733.012.48.47.502 1.236.049 1.732l-.066.067-.265.252c-.487.462-1.253.456-1.732-.014-.48-.47-.501-1.236-.049-1.732l.065-.066.265-.251zm2.96 1.146c.474-.477 1.24-.494 1.733-.038.493.457.536 1.221.098 1.73l-.064.07-.92.924c-.475.473-1.238.488-1.73.033-.491-.454-.536-1.216-.102-1.726l.063-.068.922-.925zm2.76 1.333c.44-.504 1.2-.57 1.721-.151.522.419.62 1.175.222 1.713l-.058.073-1.012 1.167c-.44.504-1.2.57-1.722.151-.521-.419-.62-1.175-.222-1.713l.058-.073 1.013-1.167zm3.952 2.164c.442.48.44 1.22-.005 1.697l-.066.066-.458.423c-.492.46-1.26.446-1.736-.032-.475-.477-.485-1.246-.023-1.736l.066-.065.459-.423c.506-.468 1.295-.436 1.763.07zM23.355 3.273c1.534.132 3.95.653 4.211 1.146l2.105-.975 4.148 7.801-1.449.771c-.297.158-.347.689-.354.947.085.52-.114 1.026-.544 1.255l-.857.458L19.09 7.634c-.056-.103-.212-.282-.63-.323-.596-.057-3.124.965-3.124.965l-.152.004c-.62.006-2.92-.046-3.035-1.177-.13-1.305 1.733-1.666 1.733-1.666l.646-.354c.915-.49 2.583-1.341 3.54-1.578 1.728-.428 3.753-.36 5.288-.232z"/>
        <path fill="#A2AD00" d="M31.159 2.179H35.159V12.179H31.159z" transform="rotate(-27 33.159 7.179)"/>
    </g>
</svg>
