<svg xmlns="http://www.w3.org/2000/svg" width="37" height="30" viewBox="0 0 37 30" fill="none">
    <path fill-rule="evenodd" clip-rule="evenodd" d="M7.08691 7.22217V28.9999H13.1739V27.8333C13.1739 26.3353 14.3715 25.1111 15.8369 25.1111C17.3008 25.1111 18.5 26.3353 18.5 27.8333V28.9999H24.5869V27.8333C24.5869 26.3353 25.7845 25.1111 27.25 25.1111C28.7139 25.1111 29.913 26.3353 29.913 27.8333V28.9999H36V7.22217H7.08691V7.22217Z" fill="#E5DED1" stroke="#262626" stroke-width="2" stroke-linejoin="round"/>
    <path d="M29.913 4.11111V1H1V22.7778H4.80435" stroke="#262626" stroke-width="2" stroke-linejoin="round"/>
    <path fill-rule="evenodd" clip-rule="evenodd" d="M18.5 14.1112C18.5 15.3992 17.4774 16.4445 16.2174 16.4445C14.9559 16.4445 13.9348 15.3992 13.9348 14.1112C13.9348 12.8232 14.9559 11.7778 16.2174 11.7778C17.4774 11.7778 18.5 12.8232 18.5 14.1112V14.1112Z" fill="#D8A25C" stroke="#262626" stroke-width="1.55556" stroke-linejoin="round"/>
    <path fill-rule="evenodd" clip-rule="evenodd" d="M16.2173 16.4341C12.9562 16.4341 11.6521 19.2543 11.6521 21.2547H20.7825C20.7825 19.2543 19.4784 16.4341 16.2173 16.4341V16.4341Z" fill="#B8EDBA" stroke="#262626" stroke-width="1.55556" stroke-linejoin="round"/>
    <path d="M24.5869 19.6665H32.1956" stroke="#262626" stroke-width="1.55556" stroke-linejoin="round"/>
    <path d="M24.5869 16.5557H32.1956" stroke="#262626" stroke-width="1.55556" stroke-linejoin="round"/>
    <path d="M24.5869 13.4443H28.3913" stroke="#262626" stroke-width="1.55556" stroke-linejoin="round"/>
</svg>