<svg width="40" height="40" viewBox="0 0 40 40" fill="none" xmlns="http://www.w3.org/2000/svg">
    <path fill-rule="evenodd" clip-rule="evenodd" d="M28.2821 4.9495C30.151 3.08064 33.181 3.08063 35.0499 4.9495C36.9188 6.81837 36.9188 9.8484 35.0499 11.7173L32.5499 14.2172L25.3281 21.4391C25.0079 21.7592 24.6176 22.0005 24.1881 22.1437L17.0613 24.5192C16.6121 24.669 16.1169 24.5521 15.7821 24.2173C15.4473 23.8825 15.3304 23.3873 15.4802 22.9381L17.8558 15.8114C17.9989 15.3818 18.2402 14.9915 18.5604 14.6713L25.777 7.4546C25.7787 7.45289 25.7804 7.45118 25.7821 7.44948C25.7838 7.44778 25.7855 7.44608 25.7873 7.44439L28.2821 4.9495ZM26.666 10.1011L20.3281 16.4391C20.2824 16.4848 20.2479 16.5406 20.2275 16.6019L18.6424 21.357L23.3975 19.772C23.4589 19.7515 23.5146 19.717 23.5603 19.6713L29.8983 13.3334L26.666 10.1011ZM31.666 11.5656L28.4338 8.33338L30.0499 6.71727C30.9425 5.82471 32.3896 5.82471 33.2821 6.71727C34.1747 7.60982 34.1747 9.05694 33.2821 9.9495L31.666 11.5656ZM5.41602 8.33336C5.41602 6.72253 6.72185 5.4167 8.33268 5.4167H19.9993C20.6897 5.4167 21.2493 5.97634 21.2493 6.6667C21.2493 7.35705 20.6897 7.9167 19.9993 7.9167H8.33268C8.10256 7.9167 7.91602 8.10325 7.91602 8.33336V31.6667C7.91602 31.8968 8.10256 32.0834 8.33268 32.0834H31.666C31.8961 32.0834 32.0827 31.8968 32.0827 31.6667V20C32.0827 19.3097 32.6423 18.75 33.3327 18.75C34.023 18.75 34.5827 19.3097 34.5827 20V31.6667C34.5827 33.2775 33.2768 34.5834 31.666 34.5834H8.33268C6.72185 34.5834 5.41602 33.2775 5.41602 31.6667V8.33336Z" fill="#23262A"/>
</svg>