<svg xmlns="http://www.w3.org/2000/svg" width="32" height="35" viewBox="0 0 32 35" fill="none">
    <path d="M22.5697 7.05736L21.796 6.40779L21.1543 7.1881L11.9202 18.4177L11.7748 18.5946L11.7208 18.8171L10.4947 23.8724L10.0118 25.8635L11.8786 25.0193L16.5444 22.9093L16.7568 22.8133L16.9048 22.6333L26.1666 11.3694L26.7953 10.6049L26.0372 9.96843L22.5697 7.05736Z" fill="#FFBD66" stroke="#262626" stroke-width="2"/>
    <path d="M25.4214 2.02062L25.4063 2.03608L25.3919 2.05219L25.2459 2.215L25.2316 2.23086L25.2181 2.24731L23.0908 4.83297L22.4617 5.59756L23.2201 6.23419L26.6876 9.14526L27.461 9.7946L28.1027 9.0148L30.2023 6.4634L30.2025 6.46311C31.305 5.12238 31.2616 3.17346 30.0899 1.9617L30.0735 1.94477L30.0563 1.92863L29.9075 1.7885L29.8903 1.77239L29.8725 1.7571C28.5563 0.630069 26.6193 0.795869 25.4214 2.02062Z" fill="#C4C4C4" stroke="#262626" stroke-width="2"/>
    <path d="M24.0682 3.33301H1V33.9997H28.6819V8.51319" stroke="#262626" stroke-width="2"/>
    <path d="M5.61377 11.333H17.8018" stroke="#262626" stroke-width="2"/>
    <path d="M5.61377 19.3335H11.5456" stroke="#262626" stroke-width="2"/>
</svg>