<svg xmlns="http://www.w3.org/2000/svg" width="72" height="72" viewBox="0 0 72 72">
    <g fill="none" fill-rule="evenodd">
        <circle cx="36" cy="36" r="36" fill="#99BDCD"/>
        <path fill="#3E3832" d="M53.495 44.653l-4.088-4.088a4.242 4.242 0 0 0-3.02-1.252 4.249 4.249 0 0 0-3.022 1.252L42.27 41.66a90.798 90.798 0 0 1-11.932-11.933l1.095-1.095a4.276 4.276 0 0 0 0-6.04l-4.09-4.09a4.242 4.242 0 0 0-3.02-1.252 4.246 4.246 0 0 0-3.021 1.252l-2.242 2.243c-2.072 2.07-2.4 5.352-.783 7.8 6.556 9.912 15.261 18.617 25.175 25.173a6.187 6.187 0 0 0 3.421 1.03c1.655 0 3.21-.645 4.377-1.813l2.243-2.243a4.24 4.24 0 0 0 1.252-3.02 4.234 4.234 0 0 0-1.25-3.019z"/>
    </g>
</svg>
