<svg width="40" height="40" viewBox="0 0 40 40" fill="none" xmlns="http://www.w3.org/2000/svg">
    <path fill-rule="evenodd" clip-rule="evenodd" d="M16.798 5.0719C16.4201 5.01216 16.1644 5.376 16.2601 5.66286L17.3577 8.95572C18.1763 8.81971 19.0559 8.75023 19.9993 8.75023C20.9428 8.75023 21.8224 8.81971 22.641 8.95572L23.7386 5.66286C23.8343 5.376 23.5786 5.01216 23.2007 5.0719C22.0999 5.24592 20.8283 5.41689 19.9993 5.41689C19.1704 5.41689 17.8988 5.24592 16.798 5.0719ZM13.8884 6.45343L14.9421 9.61462C14.2464 9.89069 13.609 10.2308 13.0269 10.6321C11.2475 11.8586 10.0975 13.5784 9.35381 15.5078C7.99225 19.0405 7.91988 23.5082 7.9162 27.5148C7.70353 27.6228 7.46482 27.757 7.22264 27.9185C6.52214 28.3855 5.41602 29.3366 5.41602 30.8336C5.41602 32.1153 6.06255 33.0395 6.61547 33.5924C6.89531 33.8723 7.17182 34.0793 7.37889 34.2174C7.48348 34.2871 7.57327 34.3412 7.64089 34.3798C7.67479 34.3992 7.70337 34.4148 7.72573 34.4267L7.7546 34.4419L7.76539 34.4474L7.76985 34.4497L7.77184 34.4507L7.77277 34.4511C7.77322 34.4514 7.77367 34.4516 8.33268 33.3336L7.77367 34.4516C7.94723 34.5384 8.13863 34.5836 8.33268 34.5836H31.666C31.8601 34.5836 32.0515 34.5384 32.225 34.4516L31.666 33.3336C32.225 34.4516 32.2255 34.4514 32.2259 34.4511L32.2269 34.4507L32.2288 34.4497L32.2333 34.4474L32.2441 34.4419L32.273 34.4267C32.2953 34.4148 32.3239 34.3992 32.3578 34.3798C32.4254 34.3412 32.5152 34.2871 32.6198 34.2174C32.8269 34.0793 33.1034 33.8723 33.3832 33.5924C33.9361 33.0395 34.5827 32.1153 34.5827 30.8336C34.5827 29.3366 33.4766 28.3855 32.7761 27.9185C32.5339 27.757 32.2952 27.6228 32.0825 27.5148C32.0788 23.5082 32.0064 19.0405 30.6449 15.5078C29.9012 13.5784 28.7512 11.8586 26.9718 10.6321C26.3897 10.2308 25.7523 9.89069 25.0566 9.61462L26.1103 6.45343C26.8241 4.31222 24.9605 2.26267 22.8104 2.60256C21.6893 2.77979 20.6036 2.91689 19.9993 2.91689C19.3951 2.91689 18.3094 2.77979 17.1883 2.60256C15.0382 2.26267 13.1746 4.31222 13.8884 6.45343ZM31.3104 32.0836C31.4024 32.0171 31.5099 31.9302 31.6155 31.8247C31.8959 31.5443 32.0827 31.2184 32.0827 30.8336C32.0827 30.6638 31.9388 30.365 31.3893 29.9986C31.1526 29.8408 30.907 29.7171 30.7156 29.6321C30.6217 29.5903 30.5452 29.5598 30.4951 29.5407C30.4702 29.5312 30.4521 29.5247 30.442 29.5211L30.4367 29.5192L30.4361 29.519L30.4351 29.5186L30.4333 29.5181C29.9251 29.3467 29.5827 28.8702 29.5827 28.3336C29.5827 23.982 29.5654 19.6585 28.3121 16.4069C27.7016 14.8229 26.8204 13.5641 25.553 12.6904C24.2848 11.8163 22.5176 11.2502 19.9993 11.2502C17.4811 11.2502 15.7139 11.8163 14.4457 12.6904C13.1783 13.5641 12.2971 14.8229 11.6865 16.4069C10.4333 19.6585 10.416 23.982 10.416 28.3336C10.416 28.8702 10.0736 29.3467 9.56535 29.5181L9.56364 29.5186L9.56258 29.519L9.56222 29.5191L9.5567 29.5211C9.54663 29.5247 9.52854 29.5312 9.50359 29.5407C9.45348 29.5598 9.37697 29.5903 9.28306 29.6321C9.09171 29.7171 8.8461 29.8408 8.60939 29.9986C8.05989 30.365 7.91602 30.6638 7.91602 30.8336C7.91602 31.2184 8.10281 31.5443 8.38323 31.8247C8.48877 31.9302 8.59629 32.0171 8.68833 32.0836H31.3104ZM18.7601 18.176C19.3124 18.5903 19.4243 19.3738 19.0101 19.926L16.4148 23.3865L19.0101 26.8469C19.4243 27.3992 19.3124 28.1827 18.7601 28.5969C18.2078 29.0111 17.4243 28.8992 17.0101 28.3469L15.0497 25.733V27.5969C15.0497 28.2873 14.49 28.8469 13.7997 28.8469C13.1093 28.8469 12.5497 28.2873 12.5497 27.5969V19.176C12.5497 18.4857 13.1093 17.926 13.7997 17.926C14.49 17.926 15.0497 18.4857 15.0497 19.176V21.0399L17.0101 18.426C17.4243 17.8738 18.2078 17.7618 18.7601 18.176ZM21.4623 17.926C20.772 17.926 20.2123 18.4857 20.2123 19.176V27.5969C20.2123 28.2873 20.772 28.8469 21.4623 28.8469C22.1527 28.8469 22.7123 28.2873 22.7123 27.5969V24.6365H23.3213L25.081 28.1559C25.3898 28.7734 26.1406 29.0237 26.7581 28.7149C27.3755 28.4062 27.6258 27.6553 27.3171 27.0379L25.8641 24.132C26.8157 23.5398 27.449 22.4845 27.449 21.2813C27.449 19.4282 25.9469 17.926 24.0938 17.926H21.4623ZM24.0656 22.1365C24.0807 22.1361 24.0959 22.1361 24.111 22.1363C24.5754 22.1272 24.949 21.7479 24.949 21.2813C24.949 20.8089 24.5662 20.426 24.0938 20.426H22.7123V22.1365H24.0656Z" fill="#23262A"/>
</svg>