<svg width="40" height="40" viewBox="0 0 40 40" fill="none" xmlns="http://www.w3.org/2000/svg">
    <path fill-rule="evenodd" clip-rule="evenodd" d="M3.75 12.5003C3.75 11.3497 4.68274 10.417 5.83333 10.417H12.9167V8.33366C12.9167 6.72283 14.2225 5.41699 15.8333 5.41699H24.1667C25.7775 5.41699 27.0833 6.72283 27.0833 8.33366V10.417H34.1667C35.3173 10.417 36.25 11.3497 36.25 12.5003V20.8337C36.25 21.9843 35.3173 22.917 34.1667 22.917H33.75V30.8337C33.75 31.9843 32.8173 32.917 31.6667 32.917H8.33333C7.18274 32.917 6.25 31.9843 6.25 30.8337V22.917H5.83333C4.68274 22.917 3.75 21.9843 3.75 20.8337V12.5003ZM15.4167 8.33366C15.4167 8.10354 15.6032 7.91699 15.8333 7.91699H24.1667C24.3968 7.91699 24.5833 8.10354 24.5833 8.33366V10.417H15.4167V8.33366ZM20 26.2503C20.6904 26.2503 21.25 25.6907 21.25 25.0003V22.917H31.25V30.417H8.75V22.917H18.75V25.0003C18.75 25.6907 19.3096 26.2503 20 26.2503ZM20 17.0837C20.6904 17.0837 21.25 17.6433 21.25 18.3337V20.417H33.75V12.917H6.25V20.417H18.75V18.3337C18.75 17.6433 19.3096 17.0837 20 17.0837Z" fill="#23262A"/>
</svg>
