<svg xmlns="http://www.w3.org/2000/svg" width="24" height="24" viewBox="0 0 24 24">
    <g fill="none" fill-rule="evenodd">
        <path fill="#D6897D" d="M1.873 22.127c-2.586-2.586-2.481-6.883.233-9.597L7.636 7 17 16.364l-5.53 5.53c-2.714 2.714-7.011 2.819-9.597.233z"/>
        <path fill="#5EAEC7" d="M22.127 1.873c2.586 2.586 2.481 6.883-.233 9.597L16.364 17 7 7.636l5.53-5.53c2.714-2.714 7.011-2.819 9.597-.233z"/>
        <path fill="#E0F5FB" fill-rule="nonzero" d="M13.411 3.619c1.86-2.029 4.757-2.17 6.456-.315.19.206.175.557-.032.782-.207.226-.528.242-.717.035-1.322-1.443-3.574-1.332-5.02.245L11.85 6.82a.538.538 0 0 1-.366.18.442.442 0 0 1-.352-.145c-.19-.206-.175-.557.032-.782l2.246-2.454z"/>
    </g>
</svg>
