<svg xmlns="http://www.w3.org/2000/svg" width="40" height="40" viewBox="0 0 40 40">
    <g fill="#3E3832" fill-rule="evenodd">
        <path fill-rule="nonzero" d="M38.791 37.583h-3.979V14.028l1.211.497a1.17 1.17 0 0 0 .89-2.163l-2.1-.863v-1.53l1.21.497a1.167 1.167 0 0 0 1.526-.637 1.17 1.17 0 0 0-.637-1.526L16.926.088a1.17 1.17 0 0 0-.889 2.164l1.242.51v1.53l-.353-.145a1.17 1.17 0 0 0-.889 2.164l1.242.51v2.33l-9.938 5.14a3.94 3.94 0 0 0-2.137 3.512v19.78H1.21a1.17 1.17 0 1 0 0 2.339H38.79a1.17 1.17 0 1 0 0-2.34zM19.618 3.723l12.855 5.284v1.53L19.618 5.254v-1.53zm-6.037 33.86v-3.72a1.17 1.17 0 0 0-2.34 0v3.72H7.543v-7.238h4.868a1.17 1.17 0 0 0 0-2.34H7.543v-1.954h4.868a1.17 1.17 0 1 0 0-2.34H7.543v-2.014h4.868a1.17 1.17 0 1 0 0-2.34H7.543v-1.554c0-.607.334-1.156.873-1.435l8.863-4.584v25.799h-3.698zm15.973 0v-3.72a1.17 1.17 0 0 0-2.339 0v3.72h-2.339v-3.72a1.17 1.17 0 0 0-2.34 0v3.72h-2.918v-29.8l12.855 5.283v24.517h-2.919z"/>
        <path d="M23.688 24.067a1.17 1.17 0 0 0 1.17-1.17v-2.37a1.17 1.17 0 1 0-2.34 0v2.37c0 .647.524 1.17 1.17 1.17zM28.387 24.067a1.17 1.17 0 0 0 1.17-1.17v-2.37a1.17 1.17 0 1 0-2.34 0v2.37c0 .647.524 1.17 1.17 1.17zM23.704 25.634a1.17 1.17 0 0 0-1.17 1.17v2.37a1.17 1.17 0 1 0 2.34 0v-2.37a1.17 1.17 0 0 0-1.17-1.17zM28.403 25.634a1.17 1.17 0 0 0-1.17 1.17v2.37a1.17 1.17 0 0 0 2.34 0v-2.37a1.17 1.17 0 0 0-1.17-1.17zM23.696 17.812a1.17 1.17 0 0 0 1.17-1.17v-2.37a1.17 1.17 0 1 0-2.34 0v2.37c0 .646.524 1.17 1.17 1.17zM28.395 17.812a1.17 1.17 0 0 0 1.17-1.17v-2.37a1.17 1.17 0 0 0-2.34 0v2.37c0 .646.524 1.17 1.17 1.17z"/>
    </g>
</svg>
