<svg xmlns="http://www.w3.org/2000/svg" width="24" height="24" viewBox="0 0 24 24" fill="none">
    <path fillRule="evenodd" clipRule="evenodd" d="M23.5 16C23.776 16 24 15.776 24 15.5V12.5C24 12.224 23.776 12 23.5 12H18V11C18 9.897 17.103 9 16 9H9C8.448 9 8 8.552 8 8V4H13.5C13.776 4 14 3.776 14 3.5V0.5C14 0.224 13.776 0 13.5 0H0.5C0.224 0 0 0.224 0 0.5V3.5C0 3.776 0.224 4 0.5 4H7V8C7 9.103 7.896 10 9 10H16C16.551 10 17 10.448 17 11V12H10.5C10.224 12 10 12.224 10 12.5V15.5C10 15.776 10.224 16 10.5 16H17V20H10.5C10.224 20 10 20.224 10 20.5V23.5C10 23.776 10.224 24 10.5 24H23.5C23.776 24 24 23.776 24 23.5V20.5C24 20.224 23.776 20 23.5 20H18V16H23.5Z" fill="#3E3832"/>
</svg>