<svg width="40" height="40" viewBox="0 0 40 40" fill="none" xmlns="http://www.w3.org/2000/svg">
    <path fill-rule="evenodd" clip-rule="evenodd" d="M20.011 8.82904C20.1471 8.73084 20.298 8.62573 20.4629 8.51636C21.2591 7.98838 22.4048 7.34468 23.7812 6.91183C26.595 6.02691 30.3516 6.05004 33.848 9.54651C36.445 12.1435 37.0621 14.9962 36.7529 17.5291C36.4519 19.9946 35.2862 22.0951 34.4232 23.3672C33.9136 24.1184 33.1587 24.4781 32.392 24.5075C32.3875 24.5556 32.3819 24.604 32.3753 24.6526C32.2673 25.4519 31.8931 26.2331 31.1965 26.9297C30.4998 27.6263 29.7186 28.0006 28.9194 28.1086C28.7004 28.1382 28.4871 28.1469 28.2812 28.1392C28.2889 28.3452 28.2801 28.5584 28.2506 28.7774C28.1425 29.5767 27.7683 30.3579 27.0717 31.0545C26.3751 31.7511 25.5938 32.1254 24.7946 32.2334C24.5756 32.263 24.3624 32.2717 24.1564 32.264C24.1641 32.47 24.1554 32.6832 24.1258 32.9022C24.0178 33.7014 23.6435 34.4826 22.9469 35.1793C22.2503 35.8759 21.4691 36.2501 20.6698 36.3582C19.891 36.4634 19.184 36.3045 18.6244 36.0855C18.0654 35.8668 17.6078 35.5707 17.297 35.339C17.139 35.2212 17.0122 35.115 16.9219 35.0353C16.8765 34.9953 16.84 34.9616 16.8128 34.936L16.7791 34.9037L16.7676 34.8925L16.7632 34.8881L16.7613 34.8863C16.7613 34.8863 16.7597 34.8846 17.6436 34.0008L16.7597 34.8846L6.15309 24.278C6.14469 24.2696 6.13641 24.2611 6.12825 24.2525L6.12383 24.2478L6.11712 24.2406L6.09706 24.2188C6.0808 24.2011 6.05885 24.1768 6.03181 24.1463C5.97775 24.0852 5.90319 23.9988 5.81289 23.8889C5.63254 23.6694 5.38792 23.3542 5.11783 22.957C4.58089 22.1675 3.92589 21.0289 3.48535 19.6555C3.04357 18.2783 2.80897 16.6368 3.15365 14.8729C3.50058 13.0975 4.41864 11.2811 6.15309 9.54664C7.88754 7.8122 9.70396 6.89413 11.4793 6.5472C13.2432 6.20252 14.8847 6.43713 16.262 6.87891C17.6353 7.31945 18.7739 7.97445 19.5635 8.51139C19.7268 8.62248 19.8763 8.72927 20.011 8.82904ZM18.2163 10.6189L18.1576 10.5786C17.5004 10.1317 16.5788 9.60601 15.4983 9.25943C14.4218 8.91409 13.2159 8.75514 11.9588 9.0008C10.7131 9.24421 9.33488 9.90038 7.92086 11.3144C6.50683 12.7284 5.85066 14.1067 5.60724 15.3523C5.36159 16.6095 5.52054 17.8153 5.86588 18.8919C6.21245 19.9723 6.73813 20.8939 7.18509 21.5512C7.40695 21.8774 7.60509 22.1322 7.74451 22.3018C7.81409 22.3865 7.86866 22.4496 7.90377 22.4892L7.9382 22.5276L18.5228 33.1122L18.5283 33.1174C18.5367 33.1253 18.5527 33.1403 18.5759 33.1607C18.6225 33.2018 18.696 33.2637 18.7912 33.3346C18.9868 33.4804 19.2474 33.6447 19.5354 33.7574C19.8228 33.8699 20.0918 33.9135 20.335 33.8807C20.5577 33.8506 20.8445 33.7461 21.1791 33.4115C21.5137 33.0769 21.6182 32.7901 21.6483 32.5674C21.6812 32.3242 21.6375 32.0552 21.525 31.7678C21.4123 31.4797 21.248 31.2192 21.1022 31.0236C21.0313 30.9284 20.9694 30.8549 20.9283 30.8083C20.9258 30.8054 20.9233 30.8026 20.9209 30.8C20.9043 30.7812 20.892 30.768 20.8851 30.7607L20.8798 30.7552L19.1167 28.9921C18.6285 28.5039 18.6285 27.7124 19.1167 27.2243C19.6048 26.7361 20.3963 26.7361 20.8844 27.2243L22.6476 28.9874L22.6531 28.9927C22.6614 29.0006 22.6775 29.0155 22.7007 29.0359C22.7473 29.077 22.8207 29.1389 22.9159 29.2098C23.1115 29.3557 23.3721 29.5199 23.6602 29.6326C23.9476 29.7451 24.2166 29.7888 24.4598 29.7559C24.6825 29.7258 24.9693 29.6213 25.3039 29.2867C25.6385 28.9521 25.743 28.6653 25.7731 28.4426C25.8059 28.1994 25.7623 27.9304 25.6498 27.643C25.5371 27.355 25.3728 27.0944 25.227 26.8988C25.1561 26.8036 25.0942 26.7301 25.0531 26.6835C25.0327 26.6604 25.0177 26.6443 25.0098 26.6359L25.0046 26.6304L23.2833 24.9091C22.7952 24.421 22.7952 23.6295 23.2833 23.1414C23.7715 22.6532 24.563 22.6532 25.0511 23.1414L26.7724 24.8626L26.7779 24.8679C26.7862 24.8758 26.8023 24.8907 26.8255 24.9111C26.8721 24.9523 26.9455 25.0141 27.0407 25.0851C27.2363 25.2309 27.4969 25.3951 27.785 25.5078C28.0724 25.6203 28.3414 25.664 28.5846 25.6311C28.8073 25.601 29.0941 25.4965 29.4287 25.1619C29.7633 24.8273 29.8678 24.5405 29.8979 24.3178C29.9307 24.0746 29.8871 23.8056 29.7746 23.5182C29.6619 23.2302 29.4976 22.9696 29.3518 22.774C29.2808 22.6788 29.219 22.6053 29.1779 22.5587L29.1522 22.53L29.1346 22.5111L29.1294 22.5056L26.777 20.1532L26.7693 20.1454L24.1253 17.5015L21.4737 20.1531C19.6838 21.943 16.7818 21.943 14.9919 20.1531L13.2241 18.3853C12.7669 17.9282 12.7338 17.1979 13.1477 16.7012L18.2163 10.6189ZM30.9035 20.7441L30.9053 20.746L32.0803 21.9209C32.1556 21.9962 32.2328 22.0126 32.2769 22.0103C32.2984 22.0092 32.3114 22.004 32.3187 22C32.3242 21.997 32.3371 21.9891 32.3544 21.9637C33.1145 20.8431 34.0391 19.1287 34.2713 17.2262C34.4953 15.391 34.0885 13.3225 32.0803 11.3143C29.3737 8.60771 26.6484 8.63083 24.5312 9.29668C23.4421 9.6392 22.51 10.1586 21.8447 10.5998C21.5144 10.8189 21.256 11.0145 21.0838 11.1523C21.0016 11.2179 20.9395 11.2701 20.8989 11.3049L15.799 17.4248L16.7596 18.3854C17.5732 19.199 18.8923 19.199 19.7059 18.3854L23.2415 14.8498C23.4759 14.6154 23.7938 14.4837 24.1253 14.4837C24.4569 14.4837 24.7748 14.6154 25.0092 14.8498L30.9035 20.7441Z" fill="#23262A"/>
</svg>
