<svg xmlns="http://www.w3.org/2000/svg" xmlns:xlink="http://www.w3.org/1999/xlink" width="68" height="96" viewBox="0 0 68 96">
    <defs>
        <path id="a" d="M39.265.477C45.262 3.637 54 11.352 54 18.523V43H0V18.523C0 11.64 7.913 4.256 13.792.879c1.13 1.854 5.78 10.105 12.591 15.216C33.099 11.1 39.015 2.326 39.265.477z"/>
        <path id="b" d="M20 21.429c-4.418 0-8-1.44-8-3.215S15.582 15 20 15s8 1.44 8 3.214c0 1.775-3.582 3.215-8 3.215m.772-9.477c-2.949 0-4.689.654-8.823 2.144C-.736 18.666.348.108.348.108-2.484 23.96 12.676 30 20.638 30c8.086 0 24.054-8.136 20.973-30 0 0 .389 17.106-12.909 13.843-3.714-.91-4.981-1.891-7.93-1.891z"/>
    </defs>
    <g fill="none" fill-rule="evenodd">
        <path fill="#E7E5E2" d="M21 53.673C22.021 55.306 24.89 84 33.5 84 42.112 84 46 54.772 46 53.251c-13.185-7.553-25 .422-25 .422z"/>
        <use fill="#0C5EA8" transform="translate(7 53)" xlink:href="#a"/>
        <path fill="#DADE99" d="M18.157 96.101h30.431l2.009-39.516a38.883 38.883 0 0 0-1.692-1.28l-2.31 20.264-25.285.75L18.644 55c-.54.35-1.09.729-1.644 1.133L18.157 96.1z"/>
        <path fill="#E7E5E2" d="M54.215 38.28c-2.498 10.303-10.6 17.852-20.211 17.852-9.611 0-17.714-7.55-20.21-17.855-.244.09-.512.141-.794.141-1.103 0-2-.771-2-1.726v-6.965c0-.955.897-1.727 2-1.727.074 0 .147.003.218.01C14.691 16.128 23.435 7 34.004 7c10.568 0 19.314 9.127 20.787 21.01.068-.007.138-.01.209-.01 1.105 0 2 .772 2 1.727v6.965c0 .955-.895 1.726-2 1.726a2.27 2.27 0 0 1-.785-.138z"/>
        <g>
            <path fill="#635E59" d="M25.324 30.625c-1.482.109-1.897-2.024-1.452-3.417.085-.264.576-1.465 1.445-1.465.867 0 1.25.656 1.304.769.638 1.358.324 3.993-1.297 4.113M41.867 30.625c1.482.109 1.897-2.024 1.45-3.417-.083-.264-.574-1.465-1.443-1.465-.867 0-1.25.656-1.304.769-.638 1.358-.326 3.993 1.297 4.113"/>
            <path stroke="#D1BFA3" stroke-linecap="round" d="M33.987 32.583c.886-.133 1.75-.1 2.156.385.988 1.185.704 2.554-.96 3.566-.832.505-2.01.712-2.732.4"/>
            <path stroke="#593A32" stroke-linecap="round" stroke-width="1.013" d="M40.374 40.568s-1.873 4.187-7.083 4.031c-5.21-.156-7.164-4.031-7.164-4.031"/>
        </g>
        <g>
            <g transform="translate(13 26)">
                <mask id="c" fill="#fff">
                    <use xlink:href="#b"/>
                </mask>
                <g fill="#8B5F26" mask="url(#c)">
                    <path d="M-11-20.357h69v85h-69z"/>
                </g>
            </g>
        </g>
        <g fill="#B9B7B4">
            <path d="M13.004 26.612c.198-10.974 4.643-13.095 5.246-13.481.625-.304 3.256-.466-.035 4.162-1.207 1.696-3.398 6.34-3.854 12.707l-.436-.001c-.828.045-.952-1.664-.92-3.387zm41.991 0c.033 1.723-.091 3.432-.92 3.387L53.64 30c-.456-6.367-2.647-11.011-3.853-12.707-3.292-4.628-.66-4.466-.036-4.162.603.386 5.048 2.507 5.245 13.48z"/>
        </g>
    </g>
</svg>
