<svg xmlns="http://www.w3.org/2000/svg" xmlns:xlink="http://www.w3.org/1999/xlink" width="134" height="134"><defs><path id="a" d="M60.02 13.958c3.848 0 6.98 3.13 6.98 6.98v33.5c0 3.846-3.132 6.979-6.98 6.979H6.98A6.987 6.987 0 0 1 0 54.437v-33.5c0-3.85 3.13-6.979 6.98-6.979h15.353v-2.791a5.585 5.585 0 0 1 5.584-5.584h11.166a5.587 5.587 0 0 1 5.584 5.584v2.791H60.02zm-34.895-2.791v2.791h16.75v-2.791a2.794 2.794 0 0 0-2.792-2.792H27.917a2.793 2.793 0 0 0-2.792 2.792zM47.458 43.27v-8.375c0-.77-.628-1.396-1.395-1.396h-6.98v-6.98c0-.77-.628-1.395-1.395-1.395h-8.376c-.77 0-1.395.625-1.395 1.396v6.98h-6.98c-.77 0-1.395.625-1.395 1.396v8.375c0 .768.625 1.396 1.395 1.396h6.98v6.979c0 .768.625 1.396 1.395 1.396h8.375a1.4 1.4 0 0 0 1.396-1.396v-6.98h6.98a1.4 1.4 0 0 0 1.395-1.395z"/></defs><g fill="none" fill-rule="evenodd"><circle cx="67" cy="67" r="67" fill="#99BDCD"/><path fill="#FFF" d="M53 58h30v28H53z"/><g transform="translate(34 33)"><mask id="b" fill="#fff"><use xlink:href="#a"/></mask><use fill="#0067C5" xlink:href="#a"/><g fill="#0067C5" mask="url(#b)"><path d="M0 67h67V0H0z"/></g></g></g></svg>