<svg xmlns="http://www.w3.org/2000/svg" width="134" height="134" viewBox="0 0 134 134">
    <g fill="none" fill-rule="evenodd">
        <circle cx="67" cy="67" r="67" fill="#99BDCD"/>
        <path fill="#B1CAC9" d="M77.688 37.147c7.49 10.822 4.974 25.8-5.623 33.45-10.598 7.65-25.261 5.078-32.752-5.744-7.493-10.822-4.974-25.8 5.623-33.45 10.597-7.65 25.26-5.078 32.752 5.744z"/>
        <path fill="#C52C35" d="M99.733 109.032c-2.42 1.683-5.765 1.115-7.474-1.264L73.985 82.325a5.224 5.224 0 0 1 1.282-7.357c2.42-1.683 5.764-1.115 7.474 1.264l18.275 25.443a5.226 5.226 0 0 1-1.283 7.357"/>
        <path fill="#2F3238" d="M45.83 32.575c-9.885 6.988-12.24 20.715-5.255 30.597 6.986 9.883 20.712 12.24 30.596 5.253s12.24-20.714 5.254-30.597c-6.986-9.882-20.712-12.24-30.596-5.253M73.224 71.33c-11.485 8.118-27.434 5.382-35.555-6.105-8.118-11.485-5.379-27.434 6.107-35.554 11.485-8.12 27.434-5.382 35.555 6.103C87.449 47.26 84.71 63.21 73.224 71.33"/>
        <path fill="#2F3238" d="M79.107 79.06c-1.638 1.126-3.408 1.433-4.567-.161l-3.873-5.327c-1.16-1.595-.768-3.798.87-4.924 1.64-1.125 3.905-.748 5.064.846l3.873 5.326c1.158 1.594.271 3.114-1.367 4.24"/>
        <path fill="#D94C56" d="M76 83.008l16.832 24.24a1.722 1.722 0 0 0 2.43.426 1.795 1.795 0 0 0 .417-2.476L79.571 82c-1.335.924-2.593 1.17-3.571 1.008"/>
    </g>
</svg>
