<svg xmlns="http://www.w3.org/2000/svg" width="54" height="40"><g fill="none" fill-rule="evenodd"><path fill="#593A32" d="M51.341 40H2.637a.907.907 0 0 1-.906-.907V18.298c0-.5.406-.907.906-.907h48.704c.5 0 .906.406.906.907v20.795c0 .5-.406.907-.906.907"/><path fill="#333" d="M1.731 24.348h50.516V20H1.731zm32.226-20h-1.735V3.096c0-.694-.53-1.256-1.184-1.256h-8.097c-.654 0-1.185.562-1.185 1.256v1.252h-1.734v-1.43c0-1.612 1.23-2.918 2.75-2.918h8.434c1.52 0 2.751 1.306 2.751 2.918v1.43z"/><path fill="#723B30" d="M53.096 23.355c.493 0 .893-.39.893-.87V5.217c0-.48-.4-.87-.893-.87H.883a.882.882 0 0 0-.894.87v17.268c0 .48.4.87.894.87h52.213z"/><path fill="#333" d="M24.3 26.957c-1.398 0-2.537-1.051-2.537-2.343V23.21c0-1.291 1.14-2.341 2.538-2.341h5.377c1.4 0 2.537 1.05 2.537 2.341v1.403c0 1.292-1.138 2.343-2.537 2.343H24.3z"/><path fill="#F79221" d="M29.725 21.74h-5.471c-.894 0-1.62.658-1.62 1.471v1.405c0 .813.726 1.471 1.62 1.471h5.47c.895 0 1.62-.658 1.62-1.471V23.21c0-.813-.725-1.472-1.62-1.472"/></g></svg>