<svg xmlns="http://www.w3.org/2000/svg" width="24" height="24"><g fill="none" fill-rule="evenodd" transform="translate(0 4.5)"><path fill="#654A28" fill-rule="nonzero" d="M12 9a4.5 4.5 0 1 1 0-9 4.5 4.5 0 0 1 0 9zm0-1a3.5 3.5 0 1 0 0-7 3.5 3.5 0 0 0 0 7z"/><path fill="#B26D14" d="M0 10.5V19c0 .276.244.5.545.5h22.91c.3 0 .545-.224.545-.5v-8.5H0z"/><path fill="#D87F0A" d="M0 10.5V5c0-.276.244-.5.545-.5h22.91c.3 0 .545.224.545.5v5.5H0z"/><rect width="4" height="3" x="10" y="9.5" fill="#FFBD66" rx="1"/></g></svg>