<svg xmlns="http://www.w3.org/2000/svg" width="35" height="31" viewBox="0 0 35 31" fill="none">
    <path d="M1.33333 7.06543H33.6667C33.8508 7.06543 34 7.21467 34 7.39876V17.5438C34 18.0961 33.5523 18.5438 33 18.5438H2C1.44772 18.5438 1 18.0961 1 17.5438V7.39876C1 7.21467 1.14924 7.06543 1.33333 7.06543Z" fill="#D8A25C" stroke="#262626" stroke-width="2"/>
    <path d="M2.875 28.9999V18.5215H32.125V28.9999C32.125 29.5521 31.6773 29.9999 31.125 29.9999H3.875C3.32272 29.9999 2.875 29.5521 2.875 28.9999Z" fill="#EADDC6" fill-opacity="0.8" stroke="#262626" stroke-width="2"/>
    <path d="M14.5417 1H20.4583C21.3788 1 22.125 1.74619 22.125 2.66667V7.08702H12.875V2.66667C12.875 1.74619 13.6212 1 14.5417 1Z" stroke="#262626" stroke-width="2"/>
    <path d="M17.5 15.5L17.5 20.8913" stroke="#262626" stroke-width="2" stroke-linecap="round"/>
</svg>