<svg xmlns="http://www.w3.org/2000/svg" xmlns:xlink="http://www.w3.org/1999/xlink" width="52" height="62"><defs><circle id="a" cx="32" cy="32" r="32"/><path id="c" d="M32.888.292c2.544.686 6.322 2.58 9.464 5.69C45.494 9.093 48 13.772 48 17.402v21.816H0V17.401C0 13.778 2.453 9.108 5.538 6 8.723 2.793 12.583.873 15.112.237 15.159 4.51 19.12 8.913 24 8.913c4.859 0 8.807-4.365 8.888-8.62z"/><path id="e" d="M32.508 10.98l.114 1.767 1.675 1.95.256 1.32.212 1.77 1.017 1.389-.115 1.51.104 1.776 1.28 1.717v1.5l1.477 1.668.419-1.642-.185-1.579-.251-1.513.436-1.612-.592-1.612.645-1.68-.238-1.486-.258-1.572.258-1.75-.407-1.074-.788-1.788-.313-1.628-1.472-1.306-.2-1.406-1.285-1.526-2.388-.505-1.174-1.115-1.592-.719L27.527.8l-1.828.286-1.576-.388L22.59.137 20.983.08 19.38.372 17.773 0 16.19.368l-1.615.05-1.502.668-1.6.247-1.587.4-1.423.82-1.142 1.235-1.569.618L4.71 5.7l-.94 1.345-.887 1.367-.985 1.328-.572 1.552-.107 1.687.023 1.66L0 16.051l.464 1.7-.364 1.6.541 1.617-.606 1.644.675 1.566v1.624l.332 1.753 1.06-1.378.691-1.439.433-1.529-.253-1.837.67-1.467 1.227-1.193-.205-1.448.73-1.422.66-1.456v-1.409l1.267-1.91 2.557.27 1.478 1.134 1.676-.739 1.584.094 1.558.69 1.593.384 1.606-.468 1.603.291 1.577-.598 1.615.28 1.53-.898 1.693.956 1.533-.74z"/><path id="g" d="M11.452 11.613c0-1.56 3.156-1.946 7.048-1.946s7.048.386 7.048 1.946-1.95 4.78-7.048 4.78c-5.099 0-7.048-3.22-7.048-4.78zm6.837-3.746c-2.727 0-4.177.784-8.161 1.884C4.466 11.313 1.85 6.936.925 2.636.395.17 0 1.206 0 1.206c0 16.856 11.286 22.546 18.65 22.546C26.13 23.752 37 18.278 37 .88c0-.387-.749-.197-.881.328-.777 3.084.1 10.932-9.928 8.544-3.51-1.477-5.174-1.884-7.902-1.884z"/></defs><g fill="none" fill-rule="evenodd" transform="translate(-7 -2)"><mask id="b" fill="#fff"><use xlink:href="#a"/></mask><g mask="url(#b)"><path fill="#E7E5E2" fill-rule="nonzero" d="M49.403 37.682c-1.513 5.16-4.596 9.45-8.575 12.05l.199 2.228-.001.09-2.1 18.356H25.602l-.056-.385-2.575-18.003.095-2.251c-3.98-2.581-7.07-6.849-8.6-11.99a1.709 1.709 0 0 1-.955.292v-.449.45c-1.008 0-1.806-.877-1.806-1.938v-6.005c0-1.06.796-1.936 1.802-1.938.944-11.087 8.81-19.762 18.413-19.762 9.605 0 17.473 8.679 18.415 19.768a1.72 1.72 0 0 1 .152-.006c1.009 0 1.806.876 1.806 1.938v6.005c0 1.062-.797 1.937-1.806 1.937v-.449.45c-.41 0-.784-.145-1.085-.388z"/><g fill="#59514B"><path d="M25.389 31.832c-1.217.105-1.557-1.968-1.19-3.322.068-.256.471-1.425 1.184-1.425.712 0 1.026.639 1.07.749.523 1.32.266 3.88-1.064 3.998m14.105 0c1.216.105 1.556-1.968 1.19-3.322-.07-.256-.472-1.425-1.184-1.425s-1.027.639-1.07.749c-.524 1.32-.267 3.88 1.064 3.998"/><path fill-rule="nonzero" d="M32.892 33.875c.727-.134 1.224-.05 1.402.211.671.989.456 2.035-.695 2.893-.606.451-1.44.61-1.881.376-.216-.114-.468.003-.564.261-.095.259.002.561.218.675.73.387 1.851.173 2.678-.443 1.565-1.166 1.924-2.91.907-4.408-.43-.633-1.193-.762-2.195-.577-.233.043-.393.304-.357.584.036.279.254.47.487.428zm5.259 6.793a4.29 4.29 0 0 1-.298.53 6.695 6.695 0 0 1-1.007 1.222c-1.211 1.16-2.788 1.83-4.794 1.768-1.956-.06-3.526-.72-4.756-1.783a7.042 7.042 0 0 1-1.123-1.227 4.289 4.289 0 0 1-.333-.53.474.474 0 0 0-.634-.214.47.47 0 0 0-.216.631c.07.141.205.371.412.66.34.476.762.95 1.273 1.392 1.389 1.201 3.164 1.947 5.348 2.014 2.274.07 4.092-.703 5.479-2.03a7.633 7.633 0 0 0 1.15-1.395c.185-.29.306-.52.367-.66a.474.474 0 0 0-.868-.377z"/></g><g transform="translate(8.176 50.053)"><mask id="d" fill="#fff"><use xlink:href="#c"/></mask><use fill="#D8A25D" xlink:href="#c"/><g fill="#0C5472" mask="url(#d)"><path d="M-32 64.043H80v-89H-32z"/></g></g><g transform="translate(12.588 4)"><mask id="f" fill="#fff"><use xlink:href="#e"/></mask><use fill="#3E3832" xlink:href="#e"/><g fill="#8B5F26" mask="url(#f)"><path d="M-13.295-21.333h61v70h-61z"/></g></g><g transform="translate(13.47 30.556)"><mask id="h" fill="#fff"><use xlink:href="#g"/></mask><g fill="#8B5F26" mask="url(#h)"><path d="M-9.69-20.526h61v74h-61z"/></g></g></g><g mask="url(#b)"><path fill="#145570" d="M11.838 27.715c0-12.068 9.432-21.852 21.068-21.852 11.635 0 21.067 9.784 21.067 21.852 0 2.397-.377 4.7-1.065 6.859a21.371 21.371 0 0 0 2.327-9.712c0-12.068-9.998-21.851-22.329-21.851-12.333 0-22.33 9.783-22.33 21.85 0 3.49.84 6.787 2.328 9.713a22.537 22.537 0 0 1-1.066-6.86"/><path fill="#38383A" d="M56.57 42.912h-3.724c-.953 0-1.733-.765-1.733-1.7V25.985c0-.935.78-1.7 1.733-1.7h3.725c.953 0 1.733.765 1.733 1.7v15.227c0 .935-.78 1.7-1.733 1.7m-47.257 0h3.725c.953 0 1.733-.765 1.733-1.7V25.985c0-.935-.78-1.7-1.733-1.7H9.314c-.953 0-1.733.765-1.733 1.7v15.227c0 .935.78 1.7 1.733 1.7M32.906 2.708c-3.944 0-7.664.992-10.952 2.741v3.646c3.25-1.974 6.981-3.099 10.952-3.099 4.214 0 8.158 1.27 11.545 3.475V5.768a23.26 23.26 0 0 0-11.545-3.06M28.255 50.22v2.595c0 .663.553 1.208 1.232 1.208h6.84c.676 0 1.23-.545 1.23-1.209v-2.593c0-.664-.554-1.208-1.23-1.208h-6.84c-.679 0-1.232.544-1.232 1.208"/><path fill="#145570" d="M53.635 42.912l-.036-.002c-2.552 4.26-8.637 7.453-16.043 8.199v1.144c9.094-.13 16.6-4.112 18.191-9.341h-2.112z"/></g></g></svg>