<svg xmlns="http://www.w3.org/2000/svg" xmlns:xlink="http://www.w3.org/1999/xlink" width="110" height="102" viewBox="0 0 110 102">
    <defs>
        <path id="a" d="M0 9.771V54.12C0 55.71 1.25 57 2.794 57h37.413C41.75 57 43 55.71 43 54.12V2.88C43 1.29 41.75 0 40.207 0H10.352L0 9.771z"/>
    </defs>
    <g fill="none" fill-rule="evenodd">
        <path fill="#515658" d="M79.49 6H32.508C30.569 6 29 7.587 29 9.547v59.907a3.56 3.56 0 0 0 1.28 2.735 3.468 3.468 0 0 0 2.228.811H79.49c1.939 0 3.51-1.589 3.51-3.546V9.547C83 7.587 81.429 6 79.49 6"/>
        <g transform="translate(34 11)">
            <mask id="b" fill="#fff">
                <use xlink:href="#a"/>
            </mask>
        </g>
        <path fill="#C9C9C9" d="M44.352 11v6.805a2.97 2.97 0 0 1-2.975 2.966H34L44.352 11z"/>
        <path fill="#A59D96" d="M49.193 33.083h18.4v-1.64h-18.4zM49.193 38.823h18.4v-1.64h-18.4zM49.193 43.743h18.4v-1.64h-18.4zM49.193 49.483h18.4v-1.64h-18.4zM47.593 29.807h-4V33.907h4v-4.1zm-3.154 3.204h2.307v-2.309h-2.307v2.309zM47.593 35.408h-4v4.1h4V35.408zm-3.154 3.205h2.307v-2.309h-2.307v2.309zM47.593 41.01h-4v4.1h4v-4.1zm-3.154 3.204h2.307v-2.308h-2.307v2.308zM47.593 46.613h-4v4.1h4v-4.1zm-3.154 3.204h2.307V47.51h-2.307v2.308z"/>
        <path fill="#2F3237" fill-rule="nonzero" d="M44.827 31.255l1.778-3.092.988 1.031-2.707 4.709-2.093-3.224.94-1.11zM46.405 33.083l1.188.9-2.684 4.84-2.116-3.38 1.141-.978.904 1.444z"/>
        <path fill="#2F3237" d="M56.501 8.292c-.61 0-1.105-.51-1.105-1.145C55.396 6.513 55.89 6 56.5 6c.609 0 1.105.514 1.105 1.148 0 .634-.496 1.145-1.105 1.145m6.827-4.688h-4.114v-.789C59.214 1.26 57.998 0 56.501 0 55 0 53.787 1.26 53.787 2.815v.789h-4.114C47.646 3.604 46 5.31 46 7.416V12h21V7.416c0-2.105-1.645-3.812-3.672-3.812"/>
        <g>
            <path fill="#E7E6E2" d="M29.26 65.617l3.112-4.374a2.924 2.924 0 0 1 4.125-.673l.28.204c1.322.972 1.619 2.85.662 4.193l-8.47 11.905a28.03 28.03 0 0 1-.476 1.203c-.776 1.844-3.912 5.531-4.135 6.71-.223 1.181-.447 2.215-.447 2.215L10 82.129l4.578-15.63a1.67 1.67 0 0 1 .37-.658c1.608-1.757 10.574-11.042 12.093-12.615a.74.74 0 0 1 .537-.226H29V63.977s.111.671.26 1.64z"/>
            <g fill="#E7E6E2">
                <path d="M73.947 67.957l.017.3a2.576 2.576 0 0 0 2.72 2.423l9.209-.528a2.577 2.577 0 0 0 2.425-2.718l-.017-.3a2.577 2.577 0 0 0-2.72-2.425l-9.21.528a2.577 2.577 0 0 0-2.424 2.72"/>
                <path d="M72.032 63.998l.017.3a2.577 2.577 0 0 0 2.72 2.426l9.21-.53a2.577 2.577 0 0 0 2.424-2.718l-.018-.3a2.577 2.577 0 0 0-2.719-2.426l-9.21.53a2.575 2.575 0 0 0-2.424 2.718"/>
                <path d="M69.675 60.12l.018.3a2.576 2.576 0 0 0 2.72 2.425l9.208-.529a2.576 2.576 0 0 0 2.425-2.719l-.017-.3a2.577 2.577 0 0 0-2.72-2.425l-9.209.53a2.576 2.576 0 0 0-2.425 2.718"/>
                <path d="M71.15 53.092l-.054.295a2.576 2.576 0 0 0 2.057 3.007l9.067 1.699a2.577 2.577 0 0 0 3.007-2.058l.055-.295a2.576 2.576 0 0 0-2.057-3.006l-9.067-1.7a2.577 2.577 0 0 0-3.007 2.058"/>
                <path d="M76.871 59.908l-3.463-5.212-2.308-1.274 12.835-.4c.197.042 14.365 10.341 15.557 12.387.128.22.204.466.222.72l1.192 16.207-13.536 4.671s-.187-1.082-.44-2.254c-.324-1.5-2.72-8.218-3.09-10.178-.368-1.96-1.564-4.598-3.002-6.03-1.88-1.873-3.967-8.637-3.967-8.637"/>
                <path d="M88.523 71.967l.247-.248a2.996 2.996 0 0 0-.01-4.237L76.722 55.497a2.998 2.998 0 0 0-4.238.01l-.247.247a2.996 2.996 0 0 0 .01 4.237l12.036 11.985a2.996 2.996 0 0 0 4.239-.009"/>
            </g>
            <path fill="#C3242A" d="M93.96 64.476l-.556 1.376c-.313.775.139 1.687 1.009 2.039l.04.016c.87.351 1.828.009 2.14-.766l.557-1.376c.312-.774-.138-1.687-1.009-2.039l-.04-.016c-.87-.351-1.828-.008-2.141.766"/>
            <path fill="#E8D7BD" d="M61.95 54.774l-4.152-4.108 5.84-.072 1.383.56-1.688 4.18z"/>
            <path fill="#5D5C5A" d="M57.797 50.666l1.877-.053-.563 1.394z"/>
            <path fill="#EDC55C" d="M61.922 54.233c.106-.263.443-.33.584-.68a.544.544 0 0 0 .039-.159l.329.133 31.324 12.656-.563 1.393L62.31 54.921l-.307-.125s-.188-.3-.082-.563M63.19 51.861c.141-.35-.054-.634.052-.896.107-.263.45-.349.45-.349l.308.125 31.324 12.655-.563 1.394-31.324-12.656-.33-.133a.535.535 0 0 0 .083-.14"/>
            <path fill="#D8A25D" d="M62.582 52.599c.15-.371.405-.381.567-.582l.33.134L94.76 64.79l-.563 1.393-31.283-12.639-.33-.133c.023-.257-.153-.442-.003-.812"/>
            <path fill="#5D5C5A" fill-rule="nonzero" d="M95.324 63.396l-1.689 4.18.928.375 1.688-4.18z"/>
            <path fill="#E7E6E2" fill-rule="nonzero" d="M74.475 56.475a3.5 3.5 0 0 1 4.95 0l9.192 9.192a3.5 3.5 0 0 1-4.95 4.95l-9.192-9.192a3.5 3.5 0 0 1 0-4.95z"/>
            <g>
                <path fill="#BDD1D0" d="M7.272 82L25 88.394 20.293 102H0z"/>
                <path fill="#6E9DAA" d="M7.024 81L26 87.47 23.976 93 5 86.53z"/>
                <path fill="#37363A" d="M8.057 84.667a1 1 0 1 1 1.885.666 1 1 0 0 1-1.885-.666"/>
            </g>
            <g>
                <path fill="#BDD1D0" d="M102.728 82L85 88.394 89.707 102H110z"/>
                <path fill="#6E9DAA" d="M102.976 81L84 87.47 86.024 93 105 86.53z"/>
                <path fill="#37363A" d="M101.943 84.667a1 1 0 1 0-1.885.666 1 1 0 0 0 1.885-.666"/>
            </g>
        </g>
    </g>
</svg>
