<svg xmlns="http://www.w3.org/2000/svg" xmlns:xlink="http://www.w3.org/1999/xlink" width="92" height="152" viewBox="0 0 92 152">
    <defs>
        <path id="a" d="M21.41.335l-.003-.109c0 6.078 5.638 12.383 12.593 12.383 6.883 0 12.477-6.176 12.59-12.196 3.603.97 8.957 3.65 13.409 8.05C64.45 12.863 68 19.481 68 24.616v30.862H0V24.616C0 19.49 3.475 12.885 7.845 8.49 12.36 3.95 17.828 1.235 21.41.335z"/>
        <path id="c" d="M57.941 49.906c.274.153.584.239.912.239 1.122 0 2.03-1.003 2.03-2.246v-9.06c0-1.063-.665-1.952-1.56-2.186-.349-5.074-5.313-5.603-7.85-5.538-.88.022-38.832.116-39.297.116 0 0-6.378-.983-6.799 5.503-.77.319-1.318 1.14-1.318 2.105v9.06c0 1.243.91 2.246 2.03 2.246.247 0 .485-.05.705-.14 2.265 7.818 6.942 14.277 12.96 18.09l.022.047-.004.095c-5.156.481-9.504 1.152-12.057 1.871 0 0-8.519-11.778-7.653-33.674 0 0 3.063-36.791 32.227-36.431 29.161.36 31.77 31.228 31.77 31.228 2.26 9.512.117 26.525-5.74 39.243-2.994-1.373-7.653-2.199-12.994-2.62 5.863-3.857 10.408-10.249 12.616-17.948z"/>
    </defs>
    <g fill="none" fill-rule="evenodd">
        <path fill="#E7E5E2" fill-rule="nonzero" d="M45.882 33.25c14.463 0 26.298 13.241 27.614 30.114.945.461 1.592 1.49 1.592 2.671v9.074c0 1.545-1.107 2.828-2.54 2.921l-.166.006c-.159 0-.315-.015-.466-.043-2.32 7.555-6.864 13.826-12.687 17.664l.298 3.365-.002.137-3.148 27.734H36.414l-.083-.583-3.86-27.199.143-3.402c-5.852-3.828-10.422-10.11-12.756-17.685l-.074.006-.166.006c-1.51 0-2.706-1.324-2.706-2.927v-9.074c0-1.075.537-2.025 1.347-2.534 1.262-16.94 13.12-30.251 27.623-30.251z"/>
        <g fill="#59514B">
            <path d="M36.259 70.066c-1.743.14-2.231-2.588-1.706-4.37.099-.337.676-1.875 1.698-1.875 1.02 0 1.47.84 1.533.985.75 1.737.382 5.107-1.525 5.26M56.476 70.066c1.744.14 2.231-2.588 1.706-4.37-.099-.337-.676-1.875-1.697-1.875-1.02 0-1.471.84-1.534.985-.75 1.737-.382 5.107 1.525 5.26"/>
            <path fill-rule="nonzero" d="M47.014 72.755c1.042-.177 1.754-.066 2.01.278.961 1.3.654 2.677-.997 3.806-.868.594-2.063.803-2.696.495-.31-.15-.671.003-.808.344-.137.34.003.738.312.888 1.046.509 2.654.228 3.839-.583 2.243-1.535 2.757-3.83 1.299-5.8-.617-.833-1.709-1.003-3.146-.76-.334.057-.563.4-.512.768.052.368.364.62.699.564zM54.552 81.694a5.53 5.53 0 0 1-.427.697 9.017 9.017 0 0 1-1.444 1.608c-1.736 1.525-3.996 2.407-6.871 2.326-2.804-.079-5.054-.947-6.817-2.347a9.61 9.61 0 0 1-1.61-1.613 5.59 5.59 0 0 1-.478-.697c-.165-.307-.572-.434-.908-.283-.336.152-.475.524-.31.831.1.185.294.488.59.869a10.893 10.893 0 0 0 1.826 1.83c1.99 1.58 4.535 2.563 7.665 2.65 3.26.092 5.866-.925 7.853-2.671a10.28 10.28 0 0 0 1.648-1.835 6.63 6.63 0 0 0 .527-.869c.15-.314-.007-.68-.35-.817-.344-.137-.744.007-.894.32z"/>
        </g>
        <g transform="translate(12 95.95)">
            <mask id="b" fill="#fff">
                <use xlink:href="#a"/>
            </mask>
            <use fill="#0C5472" xlink:href="#a"/>
            <g mask="url(#b)">
                <path fill="#F79221" d="M31.481 55.478l-1.944-43.896c-1.556-3.803-2.86-6.378-3.91-7.727-1.174-1.508-3.208-3.217-6.102-5.127-1.667.73-6.2 3.817-7.492 5.127 0 .045 4.96 1.771-3.218 29.824v21.8H31.48zM36.519 55.478l2.097-44.08c1.261-3.773 2.397-6.446 3.41-8.019.86-1.337 2.532-3.029 5.016-5.075 3.468 1.342 6.263 3.388 8.87 5.576 0 .046-4.904 1.746 3.273 29.8v21.798H36.52z"/>
                <path fill="#D8D8D8" fill-rule="nonzero" d="M8.815 37.024h21.823l.21 3.954H8.815zM8.815 47.57h22.297l.21 3.954H8.815zM59.181 37.024H37.358l-.21 3.954h22.033zM59.181 47.57H36.897l-.216 3.954h22.5z"/>
            </g>
        </g>
        <g transform="translate(13.53 27.14)">
            <mask id="d" fill="#fff">
                <use xlink:href="#c"/>
            </mask>
            <use fill="#38383A" xlink:href="#c"/>
            <g fill="#8B5F26" mask="url(#d)">
                <path d="M-15-4h93v107h-93z"/>
            </g>
        </g>
        <g fill-rule="nonzero">
            <path fill="#FFBD66" d="M83.203 52.476v7.238H9.797v-7.238h4.217C14.65 37.22 25.316 24.622 39.43 21.418v-5.132H53.57v5.132c14.115 3.204 24.78 15.801 25.417 31.058h4.217z"/>
            <path fill="#E7A753" d="M53.569 22.076c2.226.549 4.11 1.136 5.655 1.764v13.879c0 4.235-5.655 4.235-5.655 0V22.076zM39.431 22.076V37.72c0 4.235-5.655 4.235-5.655 0v-13.88c1.544-.627 3.43-1.214 5.655-1.763z"/>
            <path stroke="#E7A753" stroke-linecap="round" d="M28.828 51.752h35.344"/>
        </g>
    </g>
</svg>
