<svg xmlns="http://www.w3.org/2000/svg" xmlns:xlink="http://www.w3.org/1999/xlink" width="92" height="152" viewBox="0 0 92 152">
    <defs>
        <path id="a" d="M36.5 21.565C45.018 10.495 49.511 3.45 49.978.433c3.87 1.027 9.638 3.894 14.433 8.614C69.189 13.75 73 20.824 73 26.313v32.991H0v-32.99c0-5.479 3.73-12.54 8.422-17.239C13.28 4.211 19.167 1.306 23.012.351c.395 2.97 4.892 10.042 13.488 21.214z"/>
        <path id="c" d="M50.012 16.812l.176 2.707 2.577 2.987.393 2.019.326 2.71 1.565 2.128-.176 2.313.16 2.72L57 37.023v2.297l2.273 2.554.644-2.514-.284-2.418-.387-2.316.671-2.469-.91-2.47.992-2.57-.366-2.277-.397-2.407.397-2.68-.626-1.644-1.212-2.738-.481-2.493-2.266-2-.309-2.153-1.975-2.337-3.674-.772-1.806-1.708-2.45-1.1-2.486-1.583-2.811.437-2.426-.594-2.358-.86-2.473-.086-2.465.447L27.342 0 24.91.563 22.424.64l-2.31 1.023-2.46.379-2.444.612-2.188 1.255-1.757 1.892-2.414.946-1.607 1.979-1.446 2.06-1.364 2.093-1.516 2.034-.88 2.376-.165 2.584.036 2.54L0 24.58l.714 2.602-.56 2.45.832 2.477-.931 2.519 1.038 2.397v2.487l.51 2.683 1.63-2.108 1.064-2.204.666-2.341-.389-2.814 1.032-2.245 1.886-1.827-.315-2.218 1.122-2.177 1.015-2.23v-2.157l1.95-2.924 3.934.411 2.274 1.738 2.578-1.132 2.437.144 2.397 1.058 2.452.586 2.47-.716 2.467.446 2.425-.916 2.485.43 2.355-1.376 2.604 1.463 2.357-1.134z"/>
    </defs>
    <g fill="none" fill-rule="evenodd">
        <path fill="#E7E5E2" fill-rule="nonzero" d="M45.879 28.5c14.728 0 26.792 13.302 28.236 30.3.076-.007.154-.01.234-.01 1.546 0 2.769 1.343 2.769 2.97v9.205c0 1.57-1.137 2.874-2.605 2.965l-.164.005a2.634 2.634 0 0 1-1.664-.595c-2.32 7.91-7.048 14.485-13.149 18.472l.305 3.413-.001.14-3.221 28.135H36.19l-.085-.591-3.95-27.593.146-3.452c-6.101-3.957-10.84-10.498-13.185-18.378a2.608 2.608 0 0 1-1.301.444l-.165.005c-1.545 0-2.769-1.343-2.769-2.97v-9.204c0-1.625 1.222-2.968 2.764-2.971C19.094 41.796 31.154 28.5 45.88 28.5z"/>
        <g fill="#59514B">
            <path d="M35.745 64.194c-1.865.162-2.387-3.003-1.825-5.07.106-.39.723-2.174 1.816-2.174 1.091 0 1.573.975 1.64 1.142.803 2.015.409 5.924-1.631 6.102M57.373 64.194c1.865.162 2.386-3.003 1.825-5.07-.106-.39-.723-2.174-1.816-2.174-1.092 0-1.574.975-1.64 1.142-.804 2.015-.41 5.924 1.63 6.102"/>
            <path fill-rule="nonzero" d="M47.25 67.312c1.115-.204 1.877-.076 2.15.323 1.029 1.51.7 3.106-1.066 4.416-.93.689-2.207.931-2.884.574-.331-.175-.718.004-.864.398-.147.395.003.856.334 1.03 1.118.591 2.838.265 4.106-.675 2.4-1.78 2.95-4.444 1.39-6.73-.66-.965-1.828-1.162-3.365-.88-.358.066-.603.465-.548.891.055.427.39.72.747.653zM55.314 77.682a6.54 6.54 0 0 1-.457.809 10.228 10.228 0 0 1-1.545 1.865c-1.857 1.769-4.274 2.792-7.35 2.698-3-.09-5.406-1.098-7.292-2.722a10.766 10.766 0 0 1-1.722-1.872 6.542 6.542 0 0 1-.512-.808.729.729 0 0 0-.972-.328.717.717 0 0 0-.33.964c.106.215.314.566.631 1.008.52.725 1.169 1.448 1.953 2.123 2.13 1.833 4.85 2.973 8.2 3.074 3.486.106 6.274-1.073 8.4-3.099a11.662 11.662 0 0 0 1.763-2.129c.285-.442.47-.793.564-1.007a.718.718 0 0 0-.375-.948.728.728 0 0 0-.956.372z"/>
        </g>
        <g transform="translate(9.47 92.41)">
            <path fill="#FFF" fill-rule="nonzero" d="M36.5 29.652L44.11 15.5 50.02 1.348C45.512 4.942 41.006 6.739 36.5 6.739s-9.012-1.797-13.519-5.391L29.084 15.5 36.5 29.652z"/>
            <mask id="b" fill="#fff">
                <use xlink:href="#a"/>
            </mask>
            <use fill="#D8A25D" xlink:href="#a"/>
            <g fill="#5C4378" mask="url(#b)">
                <path d="M-49 97h170V-38H-49z"/>
            </g>
        </g>
        <g transform="translate(16.47 21.714)">
            <mask id="d" fill="#fff">
                <use xlink:href="#c"/>
            </mask>
            <use fill="#3E3832" xlink:href="#c"/>
            <g fill="#8B5F26" mask="url(#d)">
                <path d="M-20-33h94V75h-94z"/>
            </g>
        </g>
        <g>
            <path fill="#145570" d="M17.439 57.97c0-16.378 12.822-29.656 28.64-29.656 15.815 0 28.638 13.278 28.638 29.656 0 3.253-.513 6.38-1.449 9.308a28.965 28.965 0 0 0 3.163-13.18c0-16.378-13.59-29.655-30.353-29.655-16.765 0-30.354 13.277-30.354 29.655 0 4.736 1.142 9.21 3.163 13.18a30.54 30.54 0 0 1-1.448-9.308"/>
            <path fill="#38383A" d="M78.248 78.595h-5.064c-1.296 0-2.356-1.038-2.356-2.307V55.622c0-1.269 1.06-2.307 2.356-2.307h5.064c1.295 0 2.356 1.038 2.356 2.307v20.666c0 1.269-1.06 2.307-2.356 2.307M14.008 78.595h5.063c1.296 0 2.357-1.038 2.357-2.307V55.622c0-1.269-1.06-2.307-2.357-2.307h-5.063c-1.296 0-2.356 1.038-2.356 2.307v20.666c0 1.269 1.06 2.307 2.356 2.307M46.078 24.033a31.627 31.627 0 0 0-14.888 3.72V32.7c4.42-2.678 9.49-4.205 14.888-4.205 5.728 0 11.09 1.724 15.694 4.716v-5.025a31.66 31.66 0 0 0-15.694-4.153M39.755 88.514v3.52c0 .901.753 1.64 1.675 1.64h9.297c.92 0 1.673-.739 1.673-1.64v-3.52c0-.902-.752-1.64-1.673-1.64H41.43c-.922 0-1.675.738-1.675 1.64"/>
            <path fill="#145570" d="M74.256 78.595s-.032-.003-.049-.003c-3.469 5.783-11.74 10.115-21.807 11.127v1.553c12.362-.175 22.564-5.58 24.728-12.677h-2.872z"/>
        </g>
    </g>
</svg>
