<svg width="80" height="80" viewBox="0 0 80 80" fill="none" xmlns="http://www.w3.org/2000/svg">
<rect width="40" height="40" transform="translate(41.2842 3) rotate(45)" fill="#CCE0F3"/>
<path fill-rule="evenodd" clip-rule="evenodd" d="M26 61V55.866C28.994 53.54 30.976 49.542 30.976 45C30.976 37.832 26.042 32 19.976 32C13.91 32 8.976 37.832 8.976 45C8.976 49.564 10.98 53.578 14 55.898V60.294L4.644 63.636C1.866 64.63 0 67.28 0 70.228V75C0 75.552 0.448 76 1 76H23V74H2V70.228C2 68.122 3.334 66.228 5.316 65.52L15.336 61.942C15.734 61.8 16 61.422 16 61V57.108C17.236 57.676 18.574 58 19.976 58C21.396 58 22.752 57.668 24 57.086V61H26ZM19.976 34C24.384 34 28.054 37.896 28.822 43.014C28.816 43.015 28.8105 43.015 28.8047 43.015L28.7957 43.0151C28.7926 43.0153 28.7894 43.0155 28.786 43.016C25.882 43.58 24.082 42.63 22.374 39.642C22.194 39.324 21.922 39.162 21.486 39.138C21.12 39.144 20.788 39.35 20.618 39.676C19.698 41.448 16.592 43 13.976 43C12.996 43 12.108 42.82 11.228 42.456C12.172 37.616 15.732 34 19.976 34ZM10.9873 44.6834V44.6834V44.6834C10.9816 44.7887 10.976 44.8935 10.976 45C10.976 51.066 15.014 56 19.976 56C24.938 56 28.976 51.066 28.976 45.002C28.396 45.102 27.836 45.17 27.308 45.17C24.92 45.17 23.04 44.118 21.446 41.9C19.738 43.694 16.724 45 13.976 45C12.92 45 11.95 44.83 10.996 44.5C10.9938 44.5615 10.9905 44.6225 10.9873 44.6834ZM41.296 65.29L35.958 70.582L32.712 67.288C32.322 66.894 31.692 66.89 31.296 67.278C30.904 67.666 30.898 68.3 31.286 68.694L35.236 72.704C35.424 72.894 35.712 73.012 35.948 73.002C36.212 73.002 36.464 72.898 36.652 72.712L42.702 66.712C43.094 66.324 43.096 65.69 42.708 65.298C42.32 64.902 41.686 64.902 41.296 65.29ZM37 58C30.934 58 26 62.934 26 69C26 75.066 30.934 80 37 80C43.066 80 48 75.066 48 69C48 62.934 43.066 58 37 58ZM37 78C32.038 78 28 73.962 28 69C28 64.038 32.038 60 37 60C41.962 60 46 64.038 46 69C46 73.962 41.962 78 37 78Z" fill="#3E3832"/>
<path fill-rule="evenodd" clip-rule="evenodd" d="M65.0015 35.25C65 35.664 64.664 36 64.25 36H59.75C59.336 36 59 35.664 59 35.25V30.969C57.8135 30.6675 56.4965 30.2835 55.502 29.799L52.454 32.85C52.172 33.132 51.674 33.132 51.3935 32.85L47.15 28.6065C47.009 28.4655 46.931 28.275 46.931 28.0755C46.931 27.876 47.0105 27.6855 47.15 27.5445L50.1995 24.495C49.7165 23.5035 49.3325 22.1865 49.031 21H44.75C44.336 21 44 20.664 44 20.25V15.75C44 15.336 44.336 15 44.75 15H49.031C49.331 13.8135 49.715 12.498 50.198 11.5035L47.15 8.4555C47.009 8.3145 46.9295 8.124 46.9295 7.9245C46.9295 7.725 47.009 7.5345 47.15 7.395L51.3935 3.1515C51.686 2.859 52.1615 2.859 52.454 3.1515L55.5035 6.201C56.4995 5.715 57.815 5.334 59 5.034V0.75C59 0.336 59.336 0 59.75 0H64.25C64.664 0 65 0.336 65 0.75V5.034C66.1835 5.3325 67.4975 5.7135 68.495 6.1995L71.5445 3.15C71.837 2.8575 72.3125 2.8575 72.605 3.15L76.8485 7.3935C76.9895 7.5345 77.0675 7.725 77.0675 7.9245C77.0675 8.124 76.988 8.3145 76.8485 8.4555L73.8005 11.5035C74.285 12.4995 74.6675 13.815 74.9675 15H79.25C79.664 15 80 15.336 80 15.75V20.25C80 20.664 79.664 21 79.25 21H74.969C74.669 22.1865 74.285 23.5035 73.802 24.4965L76.85 27.546C77.1425 27.8385 77.1425 28.314 76.85 28.6065L72.608 32.8485C72.3155 33.141 71.84 33.141 71.5475 32.8485L68.4965 29.8005C67.5035 30.2835 66.188 30.6675 65.0015 30.9675V35.25ZM60.5 34.5H63.5V30.381C63.5 30.0345 63.737 29.733 64.0745 29.652C64.9115 29.4495 67.133 28.911 68.2385 28.2345C68.5325 28.053 68.9135 28.098 69.1595 28.344L72.0755 31.257L75.257 28.0755L72.344 25.161C72.0995 24.915 72.0545 24.5355 72.2345 24.24C72.9095 23.136 73.4495 20.9115 73.6505 20.073C73.733 19.737 74.0345 19.5 74.381 19.5H78.5V16.5H74.3795C74.033 16.5 73.7315 16.263 73.6505 15.9255C73.4495 15.09 72.9155 12.8715 72.236 11.757C72.056 11.4615 72.101 11.0805 72.3455 10.836L75.2585 7.9245L72.0755 4.7415L69.161 7.6545C68.915 7.9005 68.5325 7.9425 68.2415 7.764C67.2425 7.1565 65.3855 6.666 64.076 6.3495C63.737 6.27 63.5 5.9685 63.5 5.622V1.5H60.5V5.622C60.5 5.9685 60.263 6.27 59.9255 6.351C59.09 6.552 56.8715 7.0875 55.7585 7.7655C55.466 7.944 55.0835 7.9005 54.839 7.656L51.923 4.7415L48.74 7.9245L51.6545 10.8375C51.9005 11.0835 51.9455 11.4645 51.7655 11.76C51.089 12.867 50.5505 15.09 50.3495 15.927C50.267 16.263 49.9655 16.5 49.619 16.5H45.5V19.5H49.619C49.964 19.5 50.267 19.737 50.348 20.073C50.5505 20.9115 51.089 23.136 51.764 24.24C51.944 24.5355 51.899 24.9165 51.6545 25.161L48.74 28.077L51.923 31.2585L54.836 28.3425C55.082 28.0965 55.4645 28.0515 55.757 28.233C56.8647 28.9105 59.0853 29.4487 59.9222 29.6516L59.924 29.652C60.263 29.733 60.5 30.0345 60.5 30.381V34.5ZM62 25.5C57.8645 25.5 54.5 22.1355 54.5 18C54.5 13.8645 57.8645 10.5 62 10.5C66.1355 10.5 69.5 13.8645 69.5 18C69.5 22.1355 66.1355 25.5 62 25.5ZM62 12C58.691 12 56 14.691 56 18C56 21.309 58.691 24 62 24C65.309 24 68 21.309 68 18C68 14.691 65.309 12 62 12Z" fill="#3E3832"/>
</svg>
