<svg xmlns="http://www.w3.org/2000/svg" xmlns:xlink="http://www.w3.org/1999/xlink" width="68" height="112" viewBox="0 0 68 112">
    <defs>
        <path id="a" d="M36.999.328c2.862.77 7.113 2.894 10.647 6.384C51.181 10.202 54 15.45 54 19.522V44H0V19.523c0-4.065 2.76-9.304 6.23-12.79C9.814 3.133 14.156.98 17 .266 17.053 5.059 21.51 10 27 10c5.466 0 9.908-4.898 9.999-9.672z"/>
        <path id="c" d="M36.676 12.352l.128 1.988 1.89 2.195.289 1.483.239 1.992 1.147 1.563-.13 1.7.118 1.997 1.444 1.931v1.688l1.666 1.877.473-1.847-.209-1.777-.283-1.702.492-1.813-.667-1.815.727-1.89-.269-1.671-.29-1.769.29-1.969-.458-1.208-.89-2.011-.352-1.832-1.662-1.469-.226-1.582-1.449-1.717L36 4.127l-1.324-1.255-1.797-.809L31.056.9l-2.062.322-1.779-.437-1.728-.631L23.673.09 21.865.42 20.05 0l-1.785.414-1.822.056-1.693.752-1.805.278-1.792.45-1.605.922-1.288 1.39-1.77.695L5.312 6.41l-1.06 1.513-1 1.538-1.112 1.494-.645 1.746-.121 1.898.026 1.867L0 18.058l.523 1.912-.41 1.8.61 1.82-.683 1.85.761 1.761v1.828L1.176 31l1.195-1.55.78-1.618.489-1.72-.285-2.068.756-1.65 1.383-1.342-.231-1.629.823-1.6.745-1.637V14.6l1.43-2.148 2.884.302 1.668 1.277 1.89-.831 1.787.105 1.758.777 1.798.431 1.812-.526 1.809.328 1.779-.673 1.821.315 1.727-1.01 1.91 1.075 1.729-.834z"/>
        <path id="e" d="M13 13.214C13 11.44 16.582 11 21 11s8 .44 8 2.214c0 1.775-2.212 5.441-8 5.441s-8-3.666-8-5.44zm7.76-4.262c-3.096 0-4.74.893-9.263 2.144C5.069 12.874 2.1 7.893 1.05 3 .448.192 0 1.373 0 1.373 0 20.553 12.812 27.03 21.17 27.03 29.661 27.029 42 20.799 42 1c0-.44-.85-.224-1 .373-.882 3.51.113 12.44-11.27 9.723-3.984-1.68-5.873-2.144-8.97-2.144z"/>
    </defs>
    <g fill="none" fill-rule="evenodd">
        <path fill="#E7E5E2" fill-rule="nonzero" d="M53.724 54.04c-1.715 5.83-5.21 10.674-9.719 13.611l.226 2.515-.002.102L41.85 91h-15.1l-.062-.436-2.92-20.331.109-2.543c-4.51-2.916-8.012-7.735-9.746-13.542-.313.21-.683.33-1.083.33v-.507.507c-1.142 0-2.047-.99-2.047-2.188v-6.782c0-1.197.902-2.187 2.042-2.19C14.112 30.799 23.027 21 33.911 21c10.885 0 19.802 9.802 20.87 22.326.057-.005.114-.007.172-.007 1.144 0 2.047.99 2.047 2.189v6.782c0 1.2-.903 2.188-2.047 2.188v-.507.507a1.95 1.95 0 0 1-1.23-.438z"/>
        <g fill="#59514B">
            <path d="M26.507 47.296c-1.378.117-1.764-2.175-1.349-3.671.078-.284.535-1.575 1.342-1.575s1.163.706 1.213.827c.593 1.46.302 4.29-1.206 4.419M42.493 47.296c1.378.117 1.764-2.175 1.349-3.671-.078-.284-.535-1.575-1.342-1.575s-1.163.706-1.213.827c-.593 1.46-.302 4.29 1.206 4.419"/>
            <path fill-rule="nonzero" d="M35.01 49.554c.825-.148 1.388-.055 1.59.234.76 1.092.517 2.248-.788 3.197-.687.499-1.631.674-2.132.416-.244-.127-.53.002-.638.288-.109.286.002.62.246.747.827.427 2.098.19 3.035-.49 1.774-1.29 2.18-3.218 1.028-4.873-.488-.7-1.351-.842-2.487-.638-.265.048-.446.337-.405.646.04.309.288.52.552.473zM40.971 57.063a4.71 4.71 0 0 1-.337.585c-.302.46-.682.921-1.142 1.351-1.373 1.281-3.16 2.022-5.433 1.954-2.217-.066-3.996-.795-5.39-1.971a7.858 7.858 0 0 1-1.273-1.355 4.723 4.723 0 0 1-.378-.586.544.544 0 0 0-.718-.237.515.515 0 0 0-.245.698c.08.155.233.41.467.73a8.906 8.906 0 0 0 1.443 1.537c1.574 1.328 3.586 2.152 6.06 2.226 2.578.077 4.639-.777 6.21-2.244a8.485 8.485 0 0 0 1.303-1.542c.21-.32.347-.574.417-.729a.516.516 0 0 0-.277-.686.543.543 0 0 0-.707.269z"/>
        </g>
        <g transform="translate(7 68)">
            <mask id="b" fill="#fff">
                <use xlink:href="#a"/>
            </mask>
            <use fill="#0C5472" xlink:href="#a"/>
            <g mask="url(#b)">
                <path fill="#F79221" d="M25 44L23.456 9.186c-1.236-3.016-2.27-5.059-3.105-6.129-.933-1.195-2.548-2.551-4.846-4.066-1.323.58-4.924 3.028-5.949 4.066 0 .036 3.938 1.405-2.556 23.654V44h18zM29 44l1.666-34.96c1.001-2.993 1.903-5.113 2.707-6.36.683-1.06 2.011-2.402 3.984-4.025C40.11-.28 42.33 1.342 44.4 3.078c0 .035-3.895 1.384 2.599 23.633V44H29z"/>
                <path fill="#D8D8D8" fill-rule="nonzero" d="M7 29.364h17.33l.167 3.136H7zM7 37.727h17.707l.167 3.137H7zM46.997 29.364h-17.33L29.5 32.5h17.497zM46.997 37.727H29.301l-.172 3.137h17.868z"/>
            </g>
        </g>
        <g transform="translate(12 16)">
            <mask id="d" fill="#fff">
                <use xlink:href="#c"/>
            </mask>
            <use fill="#3E3832" xlink:href="#c"/>
            <g fill="#8B5F26" mask="url(#d)">
                <path d="M-15-24h69v79h-69z"/>
            </g>
        </g>
        <g transform="translate(13 46)">
            <mask id="f" fill="#fff">
                <use xlink:href="#e"/>
            </mask>
            <g fill="#8B5F26" mask="url(#f)">
                <path d="M-11-23.357h69v85h-69z"/>
            </g>
        </g>
        <g>
            <path fill="#FFBD66" fill-rule="nonzero" d="M61 34.667V40H7v-5.333h3.102c.47-11.242 8.314-20.525 18.698-22.886V8h10.4v3.781c10.384 2.361 18.229 11.644 18.698 22.886H61z"/>
            <path fill="#E7A753" fill-rule="nonzero" d="M39.2 12.267c1.638.404 3.024.837 4.16 1.299v10.227c0 3.12-4.16 3.12-4.16 0V12.267zM28.8 12.267v11.526c0 3.12-4.16 3.12-4.16 0V13.566c1.136-.462 2.522-.895 4.16-1.3z"/>
            <path stroke="#E7A753" stroke-linecap="round" d="M21 34.133h26"/>
        </g>
    </g>
</svg>
