<svg width="50" height="37" xmlns="http://www.w3.org/2000/svg"><title></title><g fill="none" fill-rule="evenodd"><path d="M47.55 37H2.45a.84.84 0 01-.84-.84V16.93c0-.47.38-.84.84-.84h45.1c.46 0 .84.37.84.84v19.23c0 .46-.38.84-.84.84" fill="#593A32"/><path fill="#333" d="M1.61 22.52H48.4V18.5H1.6zM31.45 4.02h-1.6V2.86c0-.64-.5-1.16-1.1-1.16h-7.5c-.6 0-1.1.52-1.1 1.16v1.16h-1.6V2.7c0-1.5 1.14-2.7 2.55-2.7h7.8c1.41 0 2.55 1.2 2.55 2.7v1.32z"/><path d="M49.17 21.6c.46 0 .83-.36.83-.8V4.83c0-.45-.37-.8-.83-.8H.83a.82.82 0 00-.83.8V20.8c0 .44.37.8.83.8h48.34z" fill="#723B30"/><path d="M22.51 24.93c-1.3 0-2.35-.97-2.35-2.16v-1.3c0-1.2 1.06-2.17 2.35-2.17h4.98c1.3 0 2.35.98 2.35 2.17v1.3c0 1.2-1.05 2.16-2.35 2.16h-4.98z" fill="#333"/><path d="M27.53 20.1h-5.06c-.83 0-1.5.62-1.5 1.37v1.3c0 .75.67 1.36 1.5 1.36h5.06c.83 0 1.5-.6 1.5-1.36v-1.3c0-.75-.67-1.36-1.5-1.36" fill="#F79221"/></g></svg>