<svg width="38" height="31" viewBox="0 0 38 31" fill="none" xmlns="http://www.w3.org/2000/svg">
    <path fill-rule="evenodd" clip-rule="evenodd" d="M20 2H23.5C23.776 2 24 2.224 24 2.5V7H0V2.5C0 2.224 0.224 2 0.5 2H4V0.5C4 0.224 4.224 0 4.5 0H7.5C7.776 0 8 0.224 8 0.5V2H16V0.5C16 0.224 16.224 0 16.5 0H19.5C19.776 0 20 0.224 20 0.5V2ZM5 4H7V1H5V4ZM19 4H17V1H19V4ZM0.5 24C0.224 24 0 23.776 0 23.5V8H24V23.5C24 23.776 23.776 24 23.5 24H0.5ZM2 15.5C2 15.776 2.224 16 2.5 16H6V19H2.5C2.224 19 2 19.224 2 19.5C2 19.776 2.224 20 2.5 20H6V21.5C6 21.776 6.224 22 6.5 22C6.776 22 7 21.776 7 21.5V20H11V21.5C11 21.776 11.224 22 11.5 22C11.776 22 12 21.776 12 21.5V20H16V21.5C16 21.776 16.224 22 16.5 22C16.776 22 17 21.776 17 21.5V20H21.5C21.776 20 22 19.776 22 19.5C22 19.224 21.776 19 21.5 19H17V16H21.5C21.776 16 22 15.776 22 15.5C22 15.224 21.776 15 21.5 15H17V12H21.5C21.776 12 22 11.776 22 11.5C22 11.224 21.776 11 21.5 11H17V9.5C17 9.224 16.776 9 16.5 9C16.224 9 16 9.224 16 9.5V11H12V9.5C12 9.224 11.776 9 11.5 9C11.224 9 11 9.224 11 9.5V11H7V9.5C7 9.224 6.776 9 6.5 9C6.224 9 6 9.224 6 9.5V11H2.5C2.224 11 2 11.224 2 11.5C2 11.776 2.224 12 2.5 12H6V15H2.5C2.224 15 2 15.224 2 15.5ZM12 12H16V15H12V12ZM11 16H7V19H11V16ZM16 16H12V19H16V16ZM11 12H7V15H11V12Z" fill="#0C576F"/>
    <rect x="14" y="11" width="24" height="13" fill="#E3B0A8"/>
    <rect x="33" y="11" width="3" height="13" fill="#F1D8D4"/>
    <rect x="13" y="12" width="24" height="13" fill="#C2EAF7"/>
    <rect x="32" y="12" width="3" height="13" fill="#E0F5FB"/>
    <rect x="12" y="13" width="24" height="13" fill="#9BD0B0"/>
    <rect x="31" y="13" width="3" height="13" fill="#CDE7D8"/>
    <path fill-rule="evenodd" clip-rule="evenodd" d="M15 18.9341V15.0686H15.6047L17.9446 18.1035V15.0686H18.5098V18.9341H17.9051L15.5652 15.8965V18.9341H15ZM19.3212 17.0514C19.3212 16.4098 19.5197 15.9075 19.9168 15.5445C20.3139 15.1815 20.8264 15 21.4544 15C21.8657 15 22.2364 15.0853 22.5666 15.2558C22.8968 15.4263 23.1485 15.664 23.3218 15.969C23.495 16.274 23.5816 16.6199 23.5816 17.0066C23.5816 17.3986 23.4904 17.7493 23.3081 18.0587C23.1258 18.3681 22.8675 18.6023 22.5332 18.7614C22.1989 18.9205 21.8383 19 21.4514 19C21.032 19 20.6572 18.9121 20.327 18.7363C19.9968 18.5605 19.7466 18.3206 19.5764 18.0165C19.4063 17.7124 19.3212 17.3907 19.3212 17.0514ZM19.9289 17.0593C19.9289 17.5252 20.0733 17.8921 20.362 18.1602C20.6507 18.4283 21.0128 18.5623 21.4483 18.5623C21.892 18.5623 22.2572 18.4269 22.5438 18.1562C22.8305 17.8855 22.9738 17.5014 22.9738 17.004C22.9738 16.6893 22.9125 16.4146 22.79 16.18C22.6674 15.9453 22.4881 15.7633 22.2521 15.6341C22.0161 15.5049 21.7512 15.4403 21.4575 15.4403C21.0401 15.4403 20.681 15.5647 20.3802 15.8134C20.0794 16.0622 19.9289 16.4775 19.9289 17.0593ZM24.317 18.9341V15.0686H24.9065V16.9855L27.1187 15.0686H27.918L26.0491 16.6348L28 18.9341H27.2221L25.6358 16.9776L24.9065 17.5946V18.9341H24.317Z" fill="#117938"/>
    <path d="M17 31C19.2091 31 21 29.2091 21 27C21 24.7909 19.2091 23 17 23C14.7909 23 13 24.7909 13 27C13 29.2091 14.7909 31 17 31Z" fill="#FFD399"/>
    <path fill-rule="evenodd" clip-rule="evenodd" d="M20 28C20 29.6569 21.3431 31 23 31C24.6569 31 26 29.6569 26 28C26 26.3431 24.6569 25 23 25C21.3431 25 20 26.3431 20 28ZM24 28C24 28.5523 23.5523 29 23 29C22.4477 29 22 28.5523 22 28C22 27.4477 22.4477 27 23 27C23.5523 27 24 27.4477 24 28Z" fill="#E7E9E9"/>
</svg>
