<svg xmlns="http://www.w3.org/2000/svg" xmlns:xlink="http://www.w3.org/1999/xlink" width="85" height="104" viewBox="0 0 85 104">
    <defs>
        <circle id="a" cx="28" cy="28" r="28"/>
        <path id="c" d="M26.721.235c2.068.553 5.137 2.077 7.69 4.58C36.964 7.32 39 11.084 39 14.005v17.56H0v-17.56C0 11.09 1.993 7.331 4.5 4.83 7.087 2.248 10.223.703 12.277.19c.038 3.44 3.257 6.984 7.222 6.984 3.948 0 7.156-3.514 7.221-6.939z"/>
        <path id="e" d="M30.806 15.578c-.684-.828-1.857-2.408-4.656-3.933 1.909 1.573 3.164 4.555 3.468 5.434-3.118-1.5-4.43-2.358-6.236-3.105-1.772-.734-3.117-1.543-5.767-2.33a36.392 36.392 0 0 1 1.552 1.574c.517.556 1.034 1.343 1.551 2.36-2.809-1.07-5.137-1.873-6.983-2.408-2.66-.77-3.88-.739-3.88-.739s-3.62 7.753-6.805 7.855c-.418.196-.712.652-.712 1.185v5.19c0 .712.525 1.286 1.17 1.286.142 0 .28-.028.406-.08 1.064 3.653 2.869 6.29 3.88 7.844 0 0-2.338-1.774-3.523-3.497C1.893 28.756.407 25.202 0 20.184 0 4.173 9.586 3.64 9.586 3.64S11.556 0 18.706 0C31.489 0 37.21 9.267 37.412 20.184c0 6.477-3.408 11.086-6.236 14.109-.75.802-1.558 1.418-1.558 1.418 0-.19.025-.234.2-.492 1.281-1.887 2.594-4.055 3.561-7.408.158.087.337.136.525.136.647 0 1.17-.574 1.17-1.286v-5.19c0-.609-.383-1.118-.899-1.252 0-.018-.75-.051-1.44-.811-.702-.774-.864-2.54-1.93-3.83z"/>
    </defs>
    <g fill="none" fill-rule="evenodd">
        <g transform="translate(4.558 2.712)">
            <mask id="b" fill="#fff">
                <use xlink:href="#a"/>
            </mask>
            <g mask="url(#b)">
                <path fill="#99BDCD" d="M-4.48 56h71V0h-71z"/>
            </g>
            <g mask="url(#b)">
                <path fill="#E7E5E2" fill-rule="nonzero" d="M43.18 32.84c-1.337 4.291-3.955 7.854-7.31 10.034l.173 1.91-.001.078-1.814 15.753h-11.5l-.048-.331-2.224-15.449.083-1.932c-3.372-2.174-6.004-5.742-7.349-10.045a1.497 1.497 0 0 1-.139.007v-.386.386c-.87 0-1.558-.752-1.558-1.663V26.05c0-.61.31-1.15.775-1.44.727-9.62 7.559-17.182 15.914-17.182 8.332 0 15.15 7.52 15.908 17.104.544.262.917.847.917 1.518v5.153c0 .911-.688 1.663-1.558 1.663v-.386.386c-.092 0-.182-.009-.269-.025z"/>
                <g fill="#59514B">
                    <path d="M22.721 28.39c-1.013.078-1.297-1.45-.992-2.447.058-.19.393-1.05.987-1.05s.855.47.892.551c.436.973.222 2.86-.887 2.946M34.475 28.39c1.014.078 1.298-1.45.992-2.447-.057-.19-.393-1.05-.987-1.05a.998.998 0 0 0-.891.551c-.437.973-.222 2.86.886 2.946"/>
                    <path fill-rule="nonzero" d="M28.974 29.895c.606-.099 1.02-.037 1.168.156.56.729.38 1.5-.58 2.132-.504.332-1.199.45-1.566.277a.349.349 0 0 0-.47.192c-.08.19.002.413.181.498.608.285 1.543.127 2.232-.327 1.304-.86 1.603-2.145.755-3.248-.358-.466-.993-.562-1.828-.425a.375.375 0 0 0-.298.43.36.36 0 0 0 .406.315zM33.357 34.901c-.036.072-.117.21-.249.39-.222.307-.5.615-.84.901-1.009.854-2.322 1.348-3.994 1.303-1.63-.044-2.938-.53-3.963-1.314a5.488 5.488 0 0 1-.936-.904 3.127 3.127 0 0 1-.278-.39c-.096-.172-.333-.243-.528-.158-.196.084-.276.293-.18.465.058.104.17.273.343.486.283.35.635.7 1.061 1.025 1.158.885 2.637 1.435 4.457 1.485 1.895.05 3.41-.519 4.565-1.497.387-.327.704-.677.959-1.027.154-.214.255-.383.306-.487.087-.176-.004-.38-.204-.457-.2-.077-.432.003-.52.18z"/>
                </g>
                <g>
                    <g transform="translate(8.765 43.164)">
                        <mask id="d" fill="#fff">
                            <use xlink:href="#c"/>
                        </mask>
                        <use fill="#D8A25D" xlink:href="#c"/>
                        <g fill="#5C4378" mask="url(#d)">
                            <path d="M-26 51.913h91v-72h-91z"/>
                        </g>
                    </g>
                    <g transform="translate(9.544 4.746)">
                        <mask id="f" fill="#fff">
                            <use xlink:href="#e"/>
                        </mask>
                        <use fill="#E57F68" xlink:href="#e"/>
                        <g fill="#F6B873" mask="url(#f)">
                            <path d="M-7.794-3.882h54v61h-54z"/>
                        </g>
                    </g>
                </g>
            </g>
        </g>
        <path d="M56.636 15.303c9.237 13.068 6.134 31.153-6.934 40.39-13.07 9.239-31.153 6.134-40.39-6.934C.071 35.69 3.177 17.606 16.245 8.368c13.069-9.238 31.152-6.133 40.39 6.935z"/>
        <path fill="#C52C35" d="M82.09 102.53a6.49 6.49 0 0 1-9.041-1.553L50.942 69.715a6.483 6.483 0 0 1 1.552-9.04 6.487 6.487 0 0 1 9.04 1.554L83.644 93.49a6.485 6.485 0 0 1-1.552 9.039"/>
        <path fill="#2F3238" d="M16.673 9.289c-12.12 8.568-15.008 25.4-6.442 37.518 8.566 12.119 25.397 15.008 37.517 6.442 12.12-8.568 15.008-25.4 6.443-37.519C45.625 3.612 28.793.72 16.673 9.29m33.592 47.52c-14.083 9.955-33.64 6.6-43.597-7.484-9.955-14.083-6.596-33.64 7.488-43.597 14.083-9.957 33.64-6.6 43.598 7.483 9.954 14.085 6.595 33.642-7.49 43.599"/>
        <path fill="#2F3238" d="M56.541 66.037c-2.044 1.288-4.253 1.64-5.7-.184l-4.833-6.094c-1.447-1.825-.959-4.344 1.085-5.632 2.046-1.288 4.874-.857 6.32.967l4.834 6.093c1.445 1.824.338 3.562-1.706 4.85"/>
        <path fill="#D94C56" d="M54.327 69.88l20.54 29.862a2.089 2.089 0 0 0 2.965.525c.961-.698 1.187-2.062.508-3.05l-19.655-28.58c-1.63 1.139-3.164 1.442-4.358 1.242"/>
    </g>
</svg>
