<svg xmlns="http://www.w3.org/2000/svg" xmlns:xlink="http://www.w3.org/1999/xlink" width="94" height="73" viewBox="0 0 94 73">
    <defs>
        <path id="a" d="M.213 21.492C.213 9.623 8.785 0 19.363 0c10.575 0 19.15 9.623 19.15 21.491 0 2.914-.252 10.387-2.628 17.437-2.473-1.48-9.846-1.534-16.52-1.92-5.93-.343-12.301.021-15.066 1.52C.748 32.635.213 29.52.213 21.491z"/>
        <path id="c" d="M33.799 35.827H.208V15.945C.208 8.39 9.715.088 13.227.088h13.03c3.511 0 13.407 8.3 13.407 15.857a56 56 0 0 0 .31 5.9v.086c-.004 5.828-.962 13.824-6.175 13.896z"/>
        <path id="e" d="M1.034.43L.03.136l.309 10.79h1.948L5.22 3.978l3.27-1.844z"/>
        <path id="g" d="M29.51 6.075s1.475-.513 2.488.23c1.015.744 1.267 3.177 0 4.308-1.265 1.13-3.544 2.047-3.544 2.047s-3.024 4.22-3.19 5.058c-.168.84-1.037 2.828-8.412 2.828-7.377 0-9.779-2.71-10.97-3.619-2.125-1.623-3.15-3.75-3.713-5.988-.295-1.176-.481-2.328-.633-3.33C.31 6.904.006 6.022.264 4.823c.15-.696.858-.994.858-.994s.031-2.427.174-3.68c0 0 2.22-.254 4.704.07 2.993.392 7.035.534 11.56.534 4.524 0 6.333-.36 6.333-.36l5.616 5.682z"/>
        <path id="i" d="M5.073 24.976C1.859 22.573.723 16.41.29 12.035c-.433-4.372 1.063-6.558 1.388-7 2.154-3.406 8.728 2.526 16.92-4.97 2.148 6.334 9.876 14.382 9.876 14.382s1.461-.497 2.466.223c1.004.722 1.253 3.082 0 4.18-1.254 1.098-3.512 1.985-3.512 1.985s-2.994 4.095-3.16 4.91c-.164.813-3.006 2.858-8.223 2.858-6.571 0-9.794-2.746-10.973-3.627z"/>
        <path id="k" d="M.785.073c.808-.135.842.845.828 1.518-.004.166-.085.757-.143.939 0 0-1.347.17-1.361.114a10.5 10.5 0 0 1-.06-.556C-.01 1.264.194.172.785.073z"/>
        <path id="m" d="M1.213.22c.816.088.842 1.64.47 2.573-.372.934-1.135 1.377-1.49.425C-.162 2.265.245.115 1.213.22z"/>
        <path id="o" d="M.061.451c1.251-.454 2.75-.348 2.75-.348L.062.451z"/>
        <path id="q" d="M.037 2.349l.487 8.103 2.83-7.508.64-2.93z"/>
        <path id="s" d="M.052 2.515S2.33 1.619 4.688 1.05c2.355-.57 5.41-.928 5.41-.928s.505.334.74.64c-.57.995-3.025 3.24-5.655 5.09-1.33.94-2.648 1.901-3.952 2.882L.05 2.515z"/>
        <path id="u" d="M.008.205v28.56s-.07-7.488 18.024-7.488S17.51.205 17.51.205H.008z"/>
        <path id="w" d="M.023 22.132v.354c.02 5.91 1.034 13.917 6.385 13.961h34.54V16.284C40.949 8.62 31.164.202 27.55.202H14.14C10.528.202.343 8.62.343 16.284c0 0-.308 2.556-.319 5.848z"/>
        <path id="y" d="M36.71 21.214c0 11.553-8.36 20.661-18.36 20.661C8.345 41.875.238 32.51.238 20.956.239 9.404 8.347.038 18.349.038c10.001 0 18.36 9.623 18.36 21.176z"/>
        <path id="A" d="M3.45 6.95s-1.427-.507-2.408.228c-.981.734-1.225 3.139 0 4.256 1.225 1.117 3.43 2.022 3.43 2.022s2.926 4.17 3.087 4.998c.161.829-1.69 2.075-1.69 2.075s2.693 6.998 9.83 6.998c7.138 0 10.42-6.83 10.42-6.83s-1.618-1.051-2.367-1.284c-.108-.356 1.41-.843 2.562-1.741 2.057-1.603 3.05-3.706 3.593-5.915.287-1.163.466-2.301.613-3.29 1.187-.698 1.48-1.568 1.23-2.754-.145-.687-.83-.982-.83-.982s.101-3.34-.037-4.577c0 0-2.28.691-4.684 1.012-2.896.387-6.806.527-11.186.527-4.378 0-6.128-.356-6.128-.356L3.45 6.95z"/>
        <path id="C" d="M.715.134c.793-.086 1.202 1.37 1.113 2.397-.008.103-.37-.22-.735-.145-.364.076-.73.55-.84.276C-.114 1.744-.088.22.714.134z"/>
        <path id="E" d="M.986.016c.58.097.78 1.169.722 1.978 0 0-.043.49-.058.544-.015.056-1.337-.111-1.337-.111-.058-.179-.136-.758-.14-.92C.16.844.193-.117.986.016V.015z"/>
        <path id="G" d="M.086.896S4.298.881 5.348.633A94.599 94.599 0 0 1 7.547.145s-.5 1.843-1.838 2.276C2.728 3.385.086.896.086.896z"/>
        <path id="I" d="M2.521.116S.971.024.113.877l2.408-.76z"/>
        <path id="K" d="M6.978 27.73h2.94L1.391.108.23.871z"/>
        <path id="M" d="M.082 34.894h23.565V1.312L21.5.164.082 34.895z"/>
    </defs>
    <g fill="none" fill-rule="evenodd">
        <g transform="translate(54 .263)">
            <mask id="b" fill="#fff">
                <use xlink:href="#a"/>
            </mask>
            <path fill="#37373A" fill-rule="nonzero" d="M-2.799 41.934h44.323V-3.005H-2.799z" mask="url(#b)"/>
        </g>
        <g transform="translate(54 36.263)">
            <mask id="d" fill="#fff">
                <use xlink:href="#c"/>
            </mask>
            <path fill="#0F5FA9" fill-rule="nonzero" d="M-2.756 38.905h45.694V-2.99H-2.756z" mask="url(#d)"/>
        </g>
        <g transform="translate(66 37.263)">
            <mask id="f" fill="#fff">
                <use xlink:href="#e"/>
            </mask>
            <path fill="#3C84C5" fill-rule="nonzero" d="M-3.054 14.093h14.63V-3.032h-14.63z" mask="url(#f)"/>
        </g>
        <g transform="translate(55 17.263)">
            <mask id="h" fill="#fff">
                <use xlink:href="#g"/>
            </mask>
            <path fill="#E5E4E1" fill-rule="nonzero" d="M-2.836 23.652h38.707V-3.051H-2.836z" mask="url(#h)"/>
        </g>
        <g transform="translate(56 9.263)">
            <mask id="j" fill="#fff">
                <use xlink:href="#i"/>
            </mask>
            <path fill="#E5E4E1" fill-rule="nonzero" d="M-2.813 31.655h37.627V-2.987H-2.814z" mask="url(#j)"/>
        </g>
        <g transform="translate(57 17.263)">
            <mask id="l" fill="#fff">
                <use xlink:href="#k"/>
            </mask>
            <path fill="#635E59" fill-rule="nonzero" d="M-2.702 5.391h7.058v-8.066h-7.058z" mask="url(#l)"/>
        </g>
        <g transform="translate(68 18.263)">
            <mask id="n" fill="#fff">
                <use xlink:href="#m"/>
            </mask>
            <path fill="#635E59" fill-rule="nonzero" d="M-2.127 6.485h6.233V-2.52h-6.233z" mask="url(#n)"/>
        </g>
        <path stroke="#C4B19C" stroke-width="1.395" d="M64 27.347s-1.462 1.33-2.89.785c-1.266-.483-1.103-1.869-1.103-1.869"/>
        <g transform="translate(56 21.263)">
            <mask id="p" fill="#fff">
                <use xlink:href="#o"/>
            </mask>
            <path fill="#E5E4E1" fill-rule="nonzero" d="M-2.68 3.225h8.232V-2.68h-8.231z" mask="url(#p)"/>
        </g>
        <path stroke="#37373A" stroke-linecap="round" stroke-width=".689" d="M56 22.117c1.365-.896 3-.686 3-.686"/>
        <g transform="translate(67 35.263)">
            <mask id="r" fill="#fff">
                <use xlink:href="#q"/>
            </mask>
            <path fill="#E5E4E1" fill-rule="nonzero" d="M-2.704 13.462h9.439V-2.996h-9.439z" mask="url(#r)"/>
        </g>
        <g transform="translate(71 35.263)">
            <mask id="t" fill="#fff">
                <use xlink:href="#s"/>
            </mask>
            <path fill="#3C84C5" fill-rule="nonzero" d="M-2.963 11.813h16.816V-2.956H-2.963z" mask="url(#t)"/>
        </g>
        <g transform="translate(3 21.263)">
            <mask id="v" fill="#fff">
                <use xlink:href="#u"/>
            </mask>
            <path fill="#CBBBA0" fill-rule="nonzero" d="M-2.962 31.759H28.91V-2.788H-2.962z" mask="url(#v)"/>
        </g>
        <g transform="translate(0 35.263)">
            <mask id="x" fill="#fff">
                <use xlink:href="#w"/>
            </mask>
            <path fill="#8E9738" fill-rule="nonzero" d="M-2.974 39.515h46.92v-42.38h-46.92z" mask="url(#x)"/>
        </g>
        <g transform="translate(3 .263)">
            <mask id="z" fill="#fff">
                <use xlink:href="#y"/>
            </mask>
            <path fill="#CBBBA0" fill-rule="nonzero" d="M-2.744 44.94h42.436V-3.027H-2.744z" mask="url(#z)"/>
        </g>
        <g transform="translate(5 16.263)">
            <mask id="B" fill="#fff">
                <use xlink:href="#A"/>
            </mask>
            <path fill="#EDEAE8" fill-rule="nonzero" d="M-2.761 30.654h37.567V-2.973H-2.76z" mask="url(#B)"/>
        </g>
        <g transform="translate(23 18.263)">
            <mask id="D" fill="#fff">
                <use xlink:href="#C"/>
            </mask>
            <path fill="#635E59" fill-rule="nonzero" d="M-2.166 5.482h6.2v-8.088h-6.2z" mask="url(#D)"/>
        </g>
        <g transform="translate(34 17.263)">
            <mask id="F" fill="#fff">
                <use xlink:href="#E"/>
            </mask>
            <path fill="#635E59" fill-rule="nonzero" d="M-2.57 5.285h7.029v-8.017H-2.57z" mask="url(#F)"/>
        </g>
        <path stroke="#CBBBA0" stroke-linecap="round" stroke-width=".685" d="M36 22.11c-1.365-.88-3-.672-3-.672"/>
        <g transform="translate(26 27.263)">
            <mask id="H" fill="#fff">
                <use xlink:href="#G"/>
            </mask>
            <path fill="#FFF" fill-rule="nonzero" d="M-2.837 5.378H10.47v-7.97H-2.837z" mask="url(#H)"/>
        </g>
        <path stroke="#C4B19C" stroke-width="1.481" d="M27 28.165s2.48 2.99 5.276 1.831c1.255-.52 1.724-2.733 1.724-2.733s-1.078.288-2.063.587c-.985.298-4.937.315-4.937.315z"/>
        <g transform="translate(23 21.263)">
            <mask id="J" fill="#fff">
                <use xlink:href="#I"/>
            </mask>
            <path fill="#EDEAE8" fill-rule="nonzero" d="M-2.628 3.651h7.89V-2.66h-7.89z" mask="url(#J)"/>
        </g>
        <path stroke="#CBBBA0" stroke-linecap="round" stroke-width=".762" d="M25 21.267s-1.287-.12-2 .996"/>
        <g transform="translate(10 36.263)">
            <mask id="L" fill="#fff">
                <use xlink:href="#K"/>
            </mask>
            <path fill="#FFF" fill-rule="nonzero" d="M-2.814 30.794h15.778v-33.75H-2.814z" mask="url(#L)"/>
        </g>
        <g transform="translate(9 36.263)">
            <mask id="N" fill="#fff">
                <use xlink:href="#M"/>
            </mask>
            <path fill="#FFF" fill-rule="nonzero" d="M-2.978 37.935h29.685v-40.81H-2.978z" mask="url(#N)"/>
        </g>
    </g>
</svg>
