<svg width="32" height="32" viewBox="0 0 32 32" fill="none" xmlns="http://www.w3.org/2000/svg">
    <circle cx="16" cy="16" r="15" stroke="#262626" stroke-width="2"/>
    <path fillRule="evenodd" clipRule="evenodd"
          d="M16 12C17.6569 12 19 10.6569 19 9C19 7.34315 17.6569 6 16 6C14.3431 6 13 7.34315 13 9C13 10.6569 14.3431 12 16 12ZM16 14C18.7614 14 21 11.7614 21 9C21 6.23858 18.7614 4 16 4C13.2386 4 11 6.23858 11 9C11 11.7614 13.2386 14 16 14ZM18.0829 25.0029L25.2929 17.7929L26.7071 19.2071L17.9171 27.9971L15.2191 24.6247L16.7809 23.3753L18.0829 25.0029ZM16 17C13.2386 17 11 19.2386 11 22H9C9 18.134 12.134 15 16 15C18.5234 15 20.735 16.3353 21.9667 18.3378L20.4956 19.8089C19.6835 18.1457 17.9755 17 16 17Z"
          fill="#262626"/>
    <circle cx="16" cy="9" r="3" fill="#FFECCC"/>
</svg>
