<svg xmlns="http://www.w3.org/2000/svg" width="24" height="24" viewBox="0 0 24 24">
    <g fill="none" fill-rule="nonzero">
        <path fill="#3E3832" d="M8.602 17.203A8.602 8.602 0 1 1 8.602 0a8.602 8.602 0 0 1 0 17.203zm0-1.613a6.989 6.989 0 1 0 0-13.977 6.989 6.989 0 0 0 0 13.977z"/>
        <path fill="#3E3832" d="M14.29 13.752a1.067 1.067 0 0 1 1.509 0l7.543 7.544a1.067 1.067 0 0 1-1.509 1.508l-7.543-7.543a1.067 1.067 0 0 1 0-1.509z"/>
        <circle cx="8.602" cy="8.602" r="6.989" fill="#C2EAF7" opacity=".495"/>
        <path fill="#FFF" d="M6.451 13.097a4.493 4.493 0 0 0 1.608.297c2.675 0 4.843-2.353 4.843-5.256 0-1.825-.857-3.433-2.158-4.375 1.883.72 3.234 2.668 3.234 4.959 0 2.903-2.168 5.256-4.843 5.256a4.555 4.555 0 0 1-2.684-.881z"/>
    </g>
</svg>
