<svg width="42" height="52" xmlns="http://www.w3.org/2000/svg"><g fill="none" fill-rule="evenodd"><path d="M2 0h26l14 14v36a2 2 0 0 1-2 2H2a2 2 0 0 1-2-2V2a2 2 0 0 1 2-2z" fill="#E4E4DB"/><path d="M28 0l14 14H30a2 2 0 0 1-2-2V0z" fill="#B7B1A9"/><path d="M31.125 20.5h-9a1.125 1.125 0 0 0 0 2.25h9a1.125 1.125 0 0 0 0-2.25zM31.125 29.5h-9a1.125 1.125 0 0 0 0 2.25h9a1.125 1.125 0 0 0 0-2.25zM31.125 38.5h-9a1.125 1.125 0 0 0 0 2.25h9a1.125 1.125 0 0 0 0-2.25z" fill="#3E3832"/><path d="M16.828 16.328L12 21.16l-2.579-2.58a1.126 1.126 0 0 0-1.59 1.59l3.375 3.375c.218.22.506.331.794.331.288 0 .576-.11.796-.328l5.626-5.625a1.126 1.126 0 0 0-1.594-1.594zM16.828 25.328L12 30.16l-2.579-2.578a1.126 1.126 0 0 0-1.59 1.59l3.375 3.376a1.13 1.13 0 0 0 1.59 0l5.626-5.625a1.126 1.126 0 0 0-1.594-1.594zM16.828 34.328L12 39.16l-2.579-2.578a1.126 1.126 0 0 0-1.59 1.59l3.375 3.376a1.13 1.13 0 0 0 1.59 0l5.626-5.625a1.126 1.126 0 0 0-1.594-1.593z" fill="#6AB889"/></g></svg>