<svg width="40" height="40" viewBox="0 0 40 40" fill="none" xmlns="http://www.w3.org/2000/svg">
    <path fill-rule="evenodd" clip-rule="evenodd" d="M6.66667 10.417C5.05584 10.417 3.75 11.7228 3.75 13.3337V30.0003C3.75 31.6112 5.05584 32.917 6.66667 32.917H33.3333C34.9442 32.917 36.25 31.6112 36.25 30.0003V13.3337C36.25 11.7228 34.9442 10.417 33.3333 10.417H27.0833V8.33366C27.0833 6.72283 25.7775 5.41699 24.1667 5.41699H15.8333C14.2225 5.41699 12.9167 6.72283 12.9167 8.33366V10.417H6.66667ZM15.8333 7.91699C15.6032 7.91699 15.4167 8.10354 15.4167 8.33366V10.417H24.5833V8.33366C24.5833 8.10354 24.3968 7.91699 24.1667 7.91699H15.8333ZM6.66667 12.917C6.43655 12.917 6.25 13.1035 6.25 13.3337V30.0003C6.25 30.2304 6.43655 30.417 6.66667 30.417H33.3333C33.5635 30.417 33.75 30.2304 33.75 30.0003V13.3337C33.75 13.1035 33.5635 12.917 33.3333 12.917H6.66667ZM20 16.2503C20.6904 16.2503 21.25 16.81 21.25 17.5003V20.417H24.1667C24.857 20.417 25.4167 20.9766 25.4167 21.667C25.4167 22.3573 24.857 22.917 24.1667 22.917H21.25V25.8337C21.25 26.524 20.6904 27.0837 20 27.0837C19.3096 27.0837 18.75 26.524 18.75 25.8337V22.917H15.8333C15.143 22.917 14.5833 22.3573 14.5833 21.667C14.5833 20.9766 15.143 20.417 15.8333 20.417H18.75V17.5003C18.75 16.81 19.3096 16.2503 20 16.2503Z" fill="#23262A"/>
</svg>